<?xml version="1.0" encoding="UTF-8"?>
<svg xmlns="http://www.w3.org/2000/svg" version="1.1" xmlns:xlink="http://www.w3.org/1999/xlink" viewBox="0 0 3000 3000">
  <defs>
    <style>
      .cls-1, .cls-2, .cls-3 {
        fill-rule: evenodd;
      }

      .cls-1, .cls-4 {
        fill: #fc5c56;
      }

      .cls-5 {
        fill: url(#linear-gradient-2);
      }

      .cls-6 {
        fill: #ef9996;
      }

      .cls-2, .cls-7 {
        fill: #ffe8e7;
      }

      .cls-8 {
        fill: #fff;
      }

      .cls-9, .cls-3 {
        fill: #606060;
      }

      .cls-10 {
        fill: url(#linear-gradient);
      }
    </style>
    <linearGradient id="linear-gradient" x1="1057.4" y1="860.7" x2="1204" y2="860.7" gradientUnits="userSpaceOnUse">
      <stop offset="0" stop-color="#ff190a"/>
      <stop offset=".5" stop-color="#fc6661"/>
    </linearGradient>
    <linearGradient id="linear-gradient-2" x1="1100.8" y1="966.8" x2="1198.1" y2="798.4" gradientUnits="userSpaceOnUse">
      <stop offset=".5" stop-color="#59595a"/>
      <stop offset=".6" stop-color="#7d7c7a"/>
      <stop offset=".8" stop-color="#b7b5ad"/>
      <stop offset=".9" stop-color="#dcd9cd"/>
      <stop offset="1" stop-color="#eae7da"/>
    </linearGradient>
  </defs>
  <!-- Generator: Adobe Illustrator 28.7.1, SVG Export Plug-In . SVG Version: 1.2.0 Build 142)  -->
  <g>
    <g id="BusinessMeeting">
      <path class="cls-7" d="M2157.5,924c0,41.9-84.5,36.3-143,19.8-84.5-19.8-143-59.4-123.5-145.1,0-69.3,68.3-57.8,149.5-26.4,68.2,26.4,117,109.8,117,151.7Z"/>
      <path class="cls-7" d="M196.1,2065.2c0,91.5,42,180.8,93.5,254.7,80.1,114.8,222.5,158.5,362.5,158.5h1669c97,0,161.2-137.1,164.4-234.1,4.7-144.2,87.1-307.5,63.1-550.2-37.5-378.1-292.2-493.7-558.1-637.2-266-143.6-93.7-353.6-550.7-479.7-457-126-940.2,290.6-925.2,679.2,15,388.6-318.4,444.6-318.4,808.8Z"/>
      <path class="cls-8" d="M1241.1,2478.4h311.1c168.7-60.7,337.5-340.4,181.9-311.4-155.5,29-308.4,15.8-105.4-84.4s92.3-176.8,0-168.9c-92.3,7.9-76.5-55.4-39.6-176.8,36.9-121.4,0-232.2-102.8-232.2s-21.1,300.8-102.8,321.9-42.2-118.7-142.4-89.7c-100.2,29,63.3,374.7,0,345.7-63.3-29-55.4-168.9-168.7-63.3-90.7,84.4,74.7,341.3,168.7,459.1Z"/>
      <path class="cls-8" d="M891.5,621.3c0-28.5,23.1-51.6,51.6-51.6h912.3c28.5,0,51.5,23.1,51.5,51.6v1170.3c0,28.5-23.1,51.6-51.5,51.6h-912.3c-28.5,0-51.6-23.1-51.6-51.6V621.3Z"/>
      <path class="cls-3" d="M883.8,621.3c0-32.7,26.5-59.3,59.3-59.3h912.3c32.7,0,59.3,26.5,59.3,59.3v1170.3c0,32.7-26.5,59.3-59.3,59.3h-912.3c-32.7,0-59.3-26.5-59.3-59.3V621.3ZM943.1,577.4c-24.2,0-43.8,19.6-43.8,43.8v1170.3c0,24.2,19.6,43.8,43.8,43.8h912.3c24.2,0,43.8-19.6,43.8-43.8V621.3c0-24.2-19.6-43.8-43.8-43.8h-912.3Z"/>
      <path class="cls-9" d="M891.5,621.3c0-28.5,23.1-51.6,51.6-51.6h912.3c28.5,0,51.5,23.1,51.5,51.6v123.2h-1015.4v-123.2Z"/>
      <path class="cls-8" d="M1049.7,657.1c0,20.7-16.8,37.5-37.5,37.5s-37.5-16.8-37.5-37.5,16.8-37.5,37.5-37.5,37.5,16.8,37.5,37.5ZM1174.5,657.1c0,20.7-16.8,37.5-37.5,37.5s-37.5-16.8-37.5-37.5,16.8-37.5,37.5-37.5,37.5,16.8,37.5,37.5ZM1299.4,657.1c0,20.7-16.8,37.5-37.5,37.5s-37.5-16.8-37.5-37.5,16.8-37.5,37.5-37.5,37.5,16.8,37.5,37.5Z"/>
      <path class="cls-2" d="M1818.8,885.4h-583.6v-15.5h583.6v15.5ZM1818.8,1426.4h-781.7v-15.5h781.7v15.5ZM1818.8,1576.2h-781.7v-15.4h781.7v15.4Z"/>
      <path class="cls-1" d="M1041.9,1045.8c0-32.7,26.5-59.3,59.3-59.3h512.8c32.7,0,59.3,26.5,59.3,59.3v196.5c0,32.7-26.5,59.3-59.3,59.3h-512.8c-32.7,0-59.3-26.5-59.3-59.3v-196.5ZM1101.2,1001.9c-24.2,0-43.8,19.6-43.8,43.8v196.5c0,24.2,19.6,43.8,43.8,43.8h512.8c24.2,0,43.8-19.6,43.8-43.8v-196.5c0-24.2-19.6-43.8-43.8-43.8h-512.8Z"/>
      <path class="cls-4" d="M1349.3,1703.3c0-28.5,23.1-51.6,51.6-51.6h5.1c28.5,0,51.6,23.1,51.6,51.6v5.1c0,28.5-23.1,51.6-51.6,51.6h-5.1c-28.5,0-51.6-23.1-51.6-51.6v-5.1Z"/>
      <path class="cls-2" d="M1541.3,1703.3c0-32.7,26.5-59.3,59.3-59.3h5.1c32.7,0,59.3,26.5,59.3,59.3v5.1c0,32.7-26.5,59.3-59.3,59.3h-5.1c-32.7,0-59.3-26.5-59.3-59.3v-5.1ZM1600.6,1659.4c-24.2,0-43.8,19.6-43.8,43.8v5.1c0,24.2,19.6,43.8,43.8,43.8h5.1c24.2,0,43.8-19.6,43.8-43.8v-5.1c0-24.2-19.6-43.8-43.8-43.8h-5.1Z"/>
      <path class="cls-1" d="M1270.1,1074.5c-9.3-14.7-30.8-14.3-39.6.7l-65.3,111.5c-6.9,11.8-19.6,19.1-33.4,19.1h-82.1v-15.5h82.1c8.2,0,15.9-4.4,20-11.5l65.3-111.5c14.6-25,50.5-25.6,66-1.2l57.7,91c8.6,13.5,27.8,14.5,37.8,2l46.5-58.7c14.6-18.4,42.1-19.7,58.3-2.6l45.4,47.8c4.4,4.6,10.5,7.2,16.8,7.2h115.7v15.4h-115.7c-10.6,0-20.7-4.3-28-12l-45.4-47.8c-9.7-10.2-26.2-9.5-35,1.6l-46.5,58.7c-16.5,20.8-48.7,19.1-62.9-3.3l-57.7-91Z"/>
      <path class="cls-9" d="M1385.4,2474.4c-49.9-89.9-270.5-152.1-374.5-172.9l-87.6,172.9h462.1Z"/>
      <path class="cls-6" d="M634.5,1305.4l-23.8,74.5,141.3,52.8,19.4-107.5c22.7,2.6,74.7-13.2,100.6-97.2,32.4-105-10.3-237.9-100.2-251.3-89.9-13.4-155.5,62.4-171.9,161.1-13.1,78.9,17.6,144.6,34.6,167.5Z"/>
      <path class="cls-9" d="M633.9,1301.3c14.5,8.2,74.2,11.2,102.3,11.7,20.6-2.7,30.8-20.8,43.5-51.9,10.2-24.8-6-45.4-15.3-52.6-57.1-51.3,1.5-100.9,20-103.4,18.8-2.5,21.4,33.8,21.8,66.7.2,10.9,12.6,13,16.8,2.9,9.5-22.7,20.3-46.5,29.2-64.2,8.2-16.3,23.3-26.9,39.8-34.7,85.9-40.6,81-119,59.6-135.4-23.3-17.9-36.1,13.1-119.3-13.7s-204-19.4-257.3,117.8c-53.3,137.1,40.8,246.5,58.9,256.7Z"/>
      <path class="cls-6" d="M1689.2,2126.7c-21.6-92.3-142.6-110.5-200.4-108l-7.7,108h208.1Z"/>
      <path class="cls-4" d="M553.1,1356.8c-69.9,53.3-156.9,198.8-187.7,304.1-76.4,261.9-178.4,772.9,89.7,813.5,227.8.3,417.4.1,483.7,0,31-46.7,88.4-153.6,69.9-214.6l-10.4-91.6c121.8,53.5,340.9,15.9,466.6-17.4,24-6.4,39.1-29.6,36.2-54.3l-10.8-93.2c-2.9-24.9-23.5-44.1-48.5-46.2-271.7-23-342.6-113.8-405.9-200.9-66.6-91.6-191.4-291.3-245.5-337.1-54.1-45.8-149.8-129-237.2-62.4Z"/>
      <path class="cls-9" d="M678,1852c79.9,159.8,216.4,270.5,324.6,320.4l4.2,79.1c-233-139.8-316.3-324.6-328.8-399.5Z"/>
      <path class="cls-9" d="M1044.2,2184.9c-23.6-51.3-106.5-156.5-249.7-166.5,43,48.6,153.1,149.8,249.7,166.5Z"/>
      <path class="cls-8" d="M208.9,2213.1c46.7,219.8,154.2,253.7,225.1,253.7h516.8c91.7,0,79.2-28.8,79.2-53.8-29.2-124.9-100-174.9-312.6-237.3-212.6-62.5-258.4-312.3-329.3-474.7s-262.6-166.6-287.6-133.2c-25,33.3,50,370.6,108.4,645.4Z"/>
      <path class="cls-3" d="M119.8,1564.5c-7.2,2.5-11.2,5.5-13,7.9-.5.7-1.4,2.5-2.1,6.5-.7,3.8-1.1,8.8-1.2,15-.2,12.5.8,29.1,3,49.2,4.4,40.3,13.2,93.9,24.7,155.3,18.9,101.4,45,223.4,69.9,340.3,5.2,24.6,10.4,48.9,15.5,72.8,23.1,108.9,61.1,170.6,101,205.1,39.8,34.4,82.4,42.5,116.5,42.5h516.8c22.6,0,38.3-1.8,49.1-4.6,10.8-2.8,16.1-6.6,18.9-10,2.7-3.4,3.8-7.4,4-12.8.1-2.7,0-5.6-.2-8.7,0-.4,0-.9,0-1.3-.1-2.4-.3-5-.3-7.6-14.3-60.6-38.5-102.4-84.4-136.8-46.7-35-116.4-62.8-222.6-94-109.2-32.1-175.1-112.2-222.5-203.7-23.7-45.7-42.8-94.5-60.4-141.8-3.9-10.4-7.7-20.8-11.4-31-13.3-36.3-26.1-71-39.8-102.5-34.3-78.7-97.8-119-156-135.7-29.1-8.3-56.7-10.7-78.4-9-10.8.8-19.9,2.7-26.9,5.1ZM229.3,1553.5c61.6,17.7,129.4,60.6,165.9,144.3,13.9,31.9,26.9,67.3,40.3,103.6,3.7,10.2,7.5,20.4,11.3,30.7,17.6,47.2,36.4,95.2,59.7,140.1,46.4,89.7,109.7,165.6,213.1,196,106.3,31.2,178.4,59.7,227.5,96.5,49.7,37.2,75.5,82.7,90.4,146.5l.2.9v.9c0,2.4.1,4.9.3,7.7,0,.5,0,.9,0,1.4.2,3.2.3,6.7.2,10.2-.3,7.1-1.8,14.9-7.4,21.9-5.6,6.9-14.3,11.9-27,15.3-12.6,3.3-29.8,5.1-53,5.1H434c-36.7,0-83.3-8.8-126.7-46.3-43.3-37.4-82.4-102.6-106-213.5-5.1-23.8-10.3-48.2-15.5-72.7-24.9-116.9-51-239.1-70-340.7-11.5-61.5-20.4-115.6-24.8-156.5-2.2-20.4-3.4-37.8-3.1-51.2.1-6.7.6-12.6,1.5-17.6.9-4.8,2.3-9.4,5-12.9,4.4-5.9,11.8-10.2,20.2-13.1,8.6-3.1,19.1-5.1,30.9-6,23.6-1.8,53,.8,83.8,9.6Z"/>
      <path class="cls-8" d="M2752.3,2138.4h-1439.9c-27.6,0-49.9,22.3-49.9,49.9s22.4,49.9,49.9,49.9h1439.9c27.6,0,49.9-22.3,49.9-49.9s-22.4-49.9-49.9-49.9Z"/>
      <path class="cls-3" d="M1254.7,2188.3c0-31.9,25.8-57.7,57.7-57.7h1439.9c31.9,0,57.7,25.8,57.7,57.7s-25.8,57.7-57.7,57.7h-1439.9c-31.8,0-57.7-25.8-57.7-57.7ZM1312.4,2146.1c-23.3,0-42.2,18.9-42.2,42.2s18.9,42.2,42.2,42.2h1439.9c23.3,0,42.2-18.9,42.2-42.2s-18.9-42.2-42.2-42.2h-1439.9Z"/>
      <path class="cls-8" d="M1417.9,2467.1l53.1-224.1h132.4l-98.6,224.1h-86.9Z"/>
      <path class="cls-3" d="M1464.9,2235.3h150.3l-105.4,239.5h-101.7l56.8-239.5ZM1477.1,2250.7l-49.4,208.6h72l91.8-208.6h-114.4Z"/>
      <path class="cls-8" d="M2631.1,2467.1l-50.6-224.1h-134.9l96.9,224.1h88.5Z"/>
      <path class="cls-3" d="M2588.8,2232.7h-158.8l105.9,244.7h108.2l-55.2-244.7ZM2572.3,2253.3l45.9,203.5h-68.8l-88-203.5h110.9Z"/>
      <path class="cls-4" d="M641.8,552.2l-28,36.2c-1.7,2.2-4.5,3.3-7.2,2.7l-34.7-6.5c-7.5-1.4-12,8-6.2,13l27.2,23.6c2,1.7,2.9,4.4,2.5,7l-6.8,38.9c-1.3,7.3,7.6,11.8,12.7,6.4l28-29.9c1.6-1.8,4-2.6,6.4-2.3l32.4,4.4c7.3,1,11.4-8.2,5.9-13l-24.1-21.2c-1.9-1.7-2.9-4.3-2.4-6.8l7.6-46.7c1.2-7.6-8.4-11.9-13.2-5.8ZM2055.9,553.6l-18.9,4.1c-1.1.2-2.3-.2-3-1.1l-9.1-11.5c-1.9-2.5-6-.6-5.6,2.5l2,15c.2,1.1-.3,2.2-1.2,2.9l-13,10.7c-2.4,2-.9,5.9,2.2,5.5l17.1-2.1c1-.1,2,.3,2.7,1l8.9,10.2c2,2.3,5.9.5,5.5-2.6l-1.6-13.4c-.1-1.1.3-2.2,1.1-2.9l15.4-13c2.5-2.1.7-6.1-2.5-5.4Z"/>
      <path class="cls-6" d="M2306.9,941.4l-16.6,79.1v49.9l37.4,33.3,112.4-12.5v-74.9l-4.2-87.4c45.8-58.3,62.4-170.6,12.5-228.9-49.9-58.3-178.9-66.6-203.9,70.7-20,109.9,33.3,159.5,62.4,170.6Z"/>
      <path class="cls-9" d="M2036.4,2481.1l42.6-466.1h596.8l59.7,466.1h-699.1Z"/>
      <path class="cls-6" d="M1636.9,1145.3c0,13.3,13.9,36.1,20.8,45.8l-8.3,49.9-62.4,8.3c-16.6-20.8-66.6-29.1-79.1-62.4-10-26.6,18-55.5,33.3-62.4l-51.7-72.4c-6.1-8.5-4.6-20.2,3.3-27,8.4-7.2,21-6.3,28.2,2.1l70.1,80.6c0,2.8,2.5,2.5,12.5-20.8,12.5-29.1,25-16.7,33.3-12.5,8.3,4.2,0,54.1,0,70.7Z"/>
      <path class="cls-8" d="M2356.9,1062c-56.6,0-70.7-44.4-70.7-66.6-40,0-66.1,19.5-74.4,25.1l-67.1,191.3-12.5,807.3c139.8,43.3,316.3,18,387,0l45.8-994.6c-27.5-17.5-67.7-25.2-96.6-27.9-14.1-1.3-26.3,8.7-33.5,20.9-12.6,21.2-37.1,44.4-78,44.4Z"/>
      <path class="cls-3" d="M2218.1,1025.5l-65.8,187.8-12.4,800.2c133.4,39.3,299.3,17.1,371.8-.4l45.3-984.3c-25.8-14.9-62.1-21.8-89.4-24.4-9.8-.9-19.6,6.1-26.1,17.1-13.5,22.9-40.3,48.2-84.6,48.2s-50.6-12.2-62.7-28c-9.5-12.4-13.9-26.8-15.3-38.4-30.6,2-51.5,15.8-60.8,22.1ZM2209.1,1012.9c10-6.8,37-25.2,77-25.2h7.7v7.7c0,9.8,3.2,24.7,12.6,36.9,9.1,11.9,24.5,21.9,50.5,21.9,37.5,0,59.8-21.1,71.3-40.6,7.9-13.4,22.4-26.4,40.9-24.7,29.2,2.7,70.9,10.5,100,29l3.8,2.4-46.2,1004.8-5.5,1.4c-71.3,18.2-249.4,43.8-391.2-.1l-5.5-1.7,12.6-814.4,68.3-195,2.1-1.4c.5-.3,1.1-.7,1.7-1.1Z"/>
      <path class="cls-4" d="M2211.2,1428.3c5.8-101.9,37.5-285.4,58.4-394.8,5.1-46.4,22.5-49.7-33.8-33.5-197.4,56.7-245.2,316.3-307.5,320.2-44.4,2.8-151.7-71.4-221.5-125.1-21-16.1-50.8-14.7-69.5,4.1l-44.6,44.6c-13.7,13.7-18.8,33.8-11.2,51.6,51.6,120.9,196.5,311.7,288.5,357.7,79.9,40,144.3-16.7,166.5-49.9-1.4,106.8-3.3,334.6,0,391.2,4.2,70.7,0,129,49.9,137.3,49.9,8.3,145.7-8.3,145.7-25s-29.1-532.7-20.8-678.3ZM2411,1424.1c3.1-76.5,41.5-283.2,65-400.1,5.9-29.3,3.5-31,34.3-22.5,215.7,59.9,386.9,429,371,576.6-13.3,123.2-111,317.7-158.1,399.5,2.8,49.9,3.3,151.5-16.6,158.1-25,8.3-241.4,0-253.9-25-12.5-25-45.8-582.6-41.6-686.7Z"/>
      <path class="cls-8" d="M2458.3,1987c-26.1-11.3-38.2-41.6-26.9-67.8l82-189.8c11.3-26.1,41.6-38.2,67.8-26.9l278.6,120.4c26.1,11.3,38.2,41.6,26.9,67.8l-82,189.8c-11.3,26.1-41.6,38.2-67.8,26.9l-278.6-120.4Z"/>
      <path class="cls-3" d="M2455.2,1994.1c-30.1-13-43.9-47.9-30.9-77.9l82-189.8c13-30.1,47.9-43.9,77.9-30.9l278.6,120.4c30.1,13,43.9,47.9,30.9,77.9l-82,189.8c-13,30.1-47.9,43.9-77.9,30.9l-278.6-120.4ZM2438.5,1922.3c-9.6,22.2.6,48,22.9,57.6l278.6,120.4c22.2,9.6,48-.6,57.6-22.9l82-189.8c9.6-22.2-.6-48-22.9-57.6l-278.6-120.4c-22.2-9.6-48,.6-57.6,22.8l-82,189.8Z"/>
      <path class="cls-9" d="M2860.4,1428.3c-26.4,41.6-66.6,156.5-16.6,283,25-47.2,63.3-169.8,16.6-283ZM1790.9,1590.6c40.2-9.7,141.5-15.8,224.7,37.4-33.3,37.5-124.8,82.4-224.7-37.4Z"/>
      <path class="cls-9" d="M2057.2,1370c-8.3,74.9-16.6,170.6-20.8,241.4-20,23.3-69.4,45.8-91.6,54.1,56.6-63.2,87.4-203.9,112.4-295.5Z"/>
      <path class="cls-6" d="M2536.4,2007.9c3.3-10,37.4-43,54.1-58.3,34.7-4.2,101.5,0,91.6,49.9-12.5,62.4-25,112.4-91.6,91.5-53.3-16.6-47.2-51.3-37.5-66.6-6.9-1.4-20-6.7-16.6-16.6Z"/>
      <path class="cls-8" d="M2376.6,2481l-39-226.1v226.1h39Z"/>
      <path class="cls-9" d="M2431.8,845.6l4.2,74.9,1,81.9c1.5,0,6.2-7.1,7.7-7.1,74.5-1.8,136.7,35.8,158.4,53.5,29.1-120.7-71.4-203.2-71.4-248.9s-20.8-187.3-162.3-191.4c-106.1-3.1-135.2,83.8-137.3,146.1-.2,6.3,5.6,11,11.5,8.8,28.5-10.5,64.9-39.8,86.6-62.8,6-6.4,18.5-4.4,22.4,3.5,10,20.1,24.7,38.7,35.2,51.4,1.5,1.9,2.4,4.2,2.4,6.6.2,11.8,1.5,27.8,3.4,43.6,1.3,11.1,16.8,11,20.2.4,3.9-11.9,8.6-23.3,13.8-31.1,16.6-25,41.6-4.2,41.6,25s-25,40.2-37.4,45.8ZM2207.1,1012.1c16.6-16.6,34.7-98.5,41.6-137.3,6.7,33.3,41.6,58.3,58.3,66.6l-12.9,61.1-3.9-11.6c-33.3,0-67.8,14.3-83.1,21.2Z"/>
      <path class="cls-4" d="M2665.2,1987.9l-60.3-23.8c-23.1-9.1-36.5-33.4-31.8-57.9,13-67.7,29.6-156.7,41.8-227.9l208.1,91.1c-23.3,63.3-68,151.2-87.4,187.3l-9.8,13.5c-13.8,19-38.7,26.3-60.6,17.7Z"/>
      <path class="cls-9" d="M2631.5,1561.4c0-36.6-65.2-144.3-95.7-208.1,67,199.3,70.9,246.1,39.7,542.6,19.5-97.5,56-317.1,56-334.5ZM2372.7,940.2c-28.1,12.5-55.9,5.2-66.3,0l-7.8,39c37.4,0,65-26,74.1-39Z"/>
      <g>
        <polygon class="cls-10" points="1130.8 865.6 1073.8 833.3 1073.8 919.5 1057.4 919.5 1057.4 801.9 1130.9 844.4 1204 801.8 1204 919.5 1187.4 919.5 1187.4 833.3 1130.8 865.6"/>
        <polygon class="cls-5" points="1173.5 819.6 1173.5 796 1157.1 805.3 1157.1 829.1 1157.1 829.1 1156.9 850.4 1157.1 850.3 1157 896.4 1087.9 857.8 1087.9 959.3 1104.3 888.1 1173.5 926.1 1173.5 841.1 1187.4 833.3 1187.4 919.5 1204 919.5 1204 801.8 1173.5 819.6"/>
      </g>
    </g>
  </g>
</svg>