<?xml version="1.0" encoding="UTF-8"?>
<svg xmlns="http://www.w3.org/2000/svg" version="1.1" viewBox="0 0 3000 3000">
  <defs>
    <style>
      .cls-1, .cls-2, .cls-3 {
        fill-rule: evenodd;
      }

      .cls-1, .cls-4 {
        fill: #fc5c56;
      }

      .cls-5, .cls-2 {
        fill: #fff;
      }

      .cls-6, .cls-3 {
        fill: #606060;
      }
    </style>
  </defs>
  <!-- Generator: Adobe Illustrator 28.7.1, SVG Export Plug-In . SVG Version: 1.2.0 Build 142)  -->
  <g>
    <g id="business-discussion">
      <path class="cls-4" d="M362.4,2012.1c0,121.9,80.1,239.5,151.6,316.7,42.7,46.1,104.6,66.5,167.3,66.5h1231.4c245,0,628.2-385,632.5-630.5.5-30.8-.6-63.1-3.9-97-34.7-350.8-270.6-457.9-517-591.1-246.3-133.2-86.7-328-510-444.9-423.3-116.9-870.9,269.6-857,630.1,13.9,360.5-294.9,412.5-294.9,750.2Z"/>
      <path class="cls-4" d="M2204.2,1072.8c-143.1-48.7-233.7-187.6-261.1-250.9-50.1-143.4,96.6-68.1,200.3,60.9,103.7,129,239.6,250.9,60.8,189.9Z"/>
      <path class="cls-5" d="M1984.3,2388.2h-349.1c-97.2-35.8-226.7-78.9-194.3-161.3s194.3,28.7,237.5-50.2c43.2-78.9-305.9-89.6-269.9-190,36-100.3,255.5,28.7,226.7-68.1-28.8-96.8-273.5-60.9-262.7-161.3,10.8-100.3,194.3,64.5,215.9-50.2,21.6-114.7-176.3-319-21.6-354.8,154.8-35.8,111.6,336.9,165.6,354.8,54,17.9,104.4-175.6,179.9-89.6,75.6,86-54,279.5,0,369.1,54,89.6,129.6-243.7,215.9-89.6,69.1,123.3-67.2,378.7-144,491Z"/>
      <path class="cls-5" d="M2000.2,1304.1l-110-439.3c-4-16.1-20.5-25.8-36.8-21.7l-300.2,75.2c-7.8,2-14.6,6.9-18.8,13.8l-45,73.8c-4.2,6.8-5.4,15-3.5,22.8l95.3,380.5c4,16.1,20.5,25.8,36.8,21.7l359.9-90.2c16.3-4.1,26.3-20.4,22.3-36.5Z"/>
      <path class="cls-3" d="M1529.1,929c5-8.2,13.1-14.2,22.5-16.5l300.2-75.2c19.6-4.9,39.4,6.8,44.2,26.1l110,439.3c4.8,19.3-7.1,38.9-26.7,43.8l-359.9,90.2c-19.6,4.9-39.4-6.8-44.2-26.1l-95.3-380.5c-2.3-9.3-.8-19.1,4.2-27.3l45-73.8ZM1554.6,924.1c-6.3,1.6-11.7,5.5-15,11l-45,73.8c-3.3,5.5-4.3,12-2.8,18.2l95.3,380.5c3.2,12.9,16.4,20.6,29.5,17.4l359.9-90.2c13.1-3.3,21-16.3,17.8-29.2l-110-439.3c-3.2-12.9-16.4-20.6-29.5-17.4l-300.2,75.2Z"/>
      <path class="cls-6" d="M1484.7,1016l58-95.1,14.6,58.4c2.4,9.6-3.6,19.5-13.3,21.9l-59.3,14.8Z"/>
      <path class="cls-1" d="M1670.5,998.2l-93.1,23.3-2.9-11.6,93.1-23.3,2.9,11.6ZM1834.9,1047l-236.4,59.2-2.9-11.6,236.4-59.2,2.9,11.6ZM1853.1,1119.3l-236.4,59.2-2.9-11.7,236.4-59.2,2.9,11.6ZM1871.6,1193.4l-236.4,59.2-2.9-11.6,236.4-59.2,2.9,11.6ZM1845.9,1273l-193.4,48.4-2.9-11.7,193.4-48.4,2.9,11.7Z"/>
      <path class="cls-5" d="M674.1,724.8c0-16.6,13.3-30,29.7-30h604.2c16.4,0,29.7,13.4,29.7,30v269.2c0,16.6-13.3,30-29.7,30h-604.2c-16.4,0-29.7-13.4-29.7-30v-269.2Z"/>
      <path class="cls-3" d="M668.2,724.8c0-19.9,16-36,35.7-36h604.2c19.7,0,35.7,16.1,35.7,36v269.2c0,19.9-16,36-35.7,36h-604.2c-19.7,0-35.7-16.1-35.7-36v-269.2ZM703.9,700.8c-13.1,0-23.8,10.8-23.8,24v269.2c0,13.3,10.6,24,23.8,24h604.2c13.1,0,23.8-10.8,23.8-24v-269.2c0-13.3-10.6-24-23.8-24h-604.2Z"/>
      <path class="cls-4" d="M777.7,821.6c0-16.6,13.3-30,29.7-30h78.6c16.4,0,29.7,13.4,29.7,30v79.4c0,16.6-13.3,30-29.7,30h-78.6c-16.4,0-29.7-13.4-29.7-30v-79.4Z"/>
      <path class="cls-3" d="M1230.4,820.9h-218.7v-12h218.7v12ZM1119.1,925.5h-107.3v-12h107.3v12Z"/>
      <path class="cls-5" d="M1009.7,2014.9c30.7,208.4,189.4,328.9,271.8,366,2.6,1.2,5.4,1.7,8.3,1.7h23.2c13.8,0,24-13,20.3-26.2-63.5-226.1-210.8-329.8-299.1-362.1-13.6-5-26.7,6.4-24.5,20.7Z"/>
      <path class="cls-3" d="M1031.8,2000.9c-8.1-3-16.4,3.6-15.1,12.9,30.2,205.3,186.7,324.1,267.7,360.5,1.6.7,3.4,1.1,5.4,1.1h23.2c9.3,0,15.8-8.6,13.4-17.2-62.8-223.7-208.4-325.7-294.7-357.4ZM1002.7,2015.9c-2.8-19.2,15-35.4,34-28.4,90.2,33.1,239.3,138.4,303.5,366.9,5.1,18-8.8,35.3-27.1,35.3h-23.2c-3.8,0-7.6-.7-11.3-2.4-83.8-37.7-244.8-159.8-275.9-371.4Z"/>
      <path class="cls-3" d="M1137.5,2134.9c-22-22.6-41.8-40.7-59.2-56.2l9.4-10.6c20.5,18.2,44.6,40.3,71.6,69.1,20,21.4,41.7,46.4,64.6,76.4v-30.7h14.2v49.7c19.6,26.7,40.1,57.1,61.2,91.7,10.1,16.4,20.3,33.8,30.6,52.2l-12.4,7c-9.7-17.2-19.3-33.6-28.7-49l-45.7-7.7,2.3-14,33.4,5.6c-18.5-29.6-36.5-55.8-53.7-79.2-26.6-36.1-51.4-65.5-74.2-90h-46.2v-14.2h32.6Z"/>
      <path class="cls-6" d="M1258.6,1652.9c-132.8,280.6-37.5,588.3,34.6,721.7,3.6,6.7,10.7,10.7,18.4,10.7h33.4c11.2,0,20.5-8.8,21.2-20,21.8-353.9-32.2-600.7-73-711.2-6-16.2-27.2-16.8-34.5-1.2Z"/>
      <path class="cls-5" d="M1566.2,1812.9c-170.3,115-252.9,396-277.3,548.5-2,12.7,7.9,23.9,20.8,23.9h49.2c5.5,0,10.8-2.1,14.7-6,155.4-154.8,210.5-410.2,221.7-548.9,1.3-16.2-15.7-26.7-29.2-17.6Z"/>
      <path class="cls-3" d="M1588.3,1829.9c.9-10.7-9.8-16.7-18.1-11.1l-4-5.9,4,5.9c-83.5,56.4-146,153.9-190.8,257.1-44.7,103.1-71.3,210.8-83.4,286.6-1.3,8.2,5.1,15.7,13.8,15.7h49.2c3.7,0,7.2-1.4,9.7-3.9,76.7-76.4,128.8-177.8,163.2-277.8,34.4-99.9,50.8-197.8,56.4-266.6ZM1562.3,1807c18.8-12.7,42,2.3,40.2,24.1-5.6,69.8-22.3,168.9-57.1,270.1-34.8,101.1-87.9,204.8-166.6,283.2-5.3,5.3-12.4,8.1-19.8,8.1h-49.2c-17.1,0-30.6-14.9-27.8-32.2,12.2-76.7,39.1-185.7,84.4-290.1,45.2-104.2,109.1-204.6,195.9-263.2Z"/>
      <path class="cls-6" d="M1709.3,2113.5c-168.9,6.3-296.3,146.6-354.7,241.4-8.4,13.6,1.8,30.4,17.7,30.4h59.1c3,0,5.9-.6,8.6-1.8,110.8-50.4,223.5-166,283.9-238.9,10.7-12.9,2.2-31.8-14.6-31.1Z"/>
      <path class="cls-2" d="M1281.6,1698.7c-1.9,56.7-2.2,111.5-1.2,163.8.7,40.5,2.2,79.5,4.2,116.8l30.5-49.2,12.1,7.5-41.1,66.5c2.9,47,6.6,91.1,10.8,131.5,5,48,10.7,91.1,16.4,128.2l26.4-43.6,12.2,7.4-35.1,58c7,42.4,13.9,75.6,19.5,98.1l-13.8,3.4c-5.8-23.4-13-57.9-20.2-101.8-6.7-40.8-13.4-89.7-19.3-145.4l-51.4-44.7,9.3-10.7,40,34.8c-3.6-36.3-6.7-75.3-9.2-116.5-2.6-43.5-4.5-89.6-5.4-137.8l-35.9-53,11.8-8,23.7,35c-.5-45.3,0-92.3,1.6-140.8l14.2.5Z"/>
      <path class="cls-3" d="M1476.4,2034.9c26.8-60.1,54.5-116.4,80.7-160.4l-12.2-7.3c-28.7,48.4-59,110.9-88,176.6-15.8,35.8-31.1,72.5-45.6,108.5l-12-61.2-14,2.8,16.3,82.8c-15,37.9-28.9,74.5-41.2,107.7-14.2,38.6-26.2,72.6-35.1,98.7l13.5,4.6c8.6-25.5,20.3-58.5,34.1-96l72.3-42.5-7.2-12.3-57.2,33.7c10.7-28.5,22.4-59.1,34.9-90.6,16.6-41.9,34.6-85.4,53.1-127.5l65.4-21.6-4.5-13.5-53.2,17.6Z"/>
      <path class="cls-2" d="M1685.1,2153.8c-39,16.9-78.7,40-116.5,65.6-23.8,16.2-46.9,33.3-68.6,50.4h37.2v14.2h-54.9c-50.3,41.2-91.5,80.9-115,106.1l-10.4-9.7c24.3-26,66.7-66.9,118.4-109,25.9-21.1,54.2-42.6,83.7-62.7l21.1-45.4,12.9,6-11.3,24.4c32-20.5,65-38.9,97.8-53.1l5.7,13.1Z"/>
      <path class="cls-4" d="M513.9,874l-27,36.2c-1.6,2.2-4.3,3.3-6.9,2.7l-33.3-6.5c-7.2-1.4-11.5,8-6,13l26.2,23.6c1.9,1.7,2.8,4.4,2.4,7l-6.6,38.9c-1.2,7.3,7.4,11.8,12.2,6.4l26.9-29.9c1.6-1.8,3.9-2.6,6.2-2.3l31.2,4.4c7,1,11-8.2,5.7-13l-23.2-21.2c-1.9-1.7-2.7-4.3-2.3-6.8l7.3-46.7c1.2-7.6-8.1-11.9-12.7-5.8ZM2351.9,942.4l-2.8,20.3c-.2,1.2-1,2.3-2.2,2.7l-15.1,5.8c-3.3,1.2-2.9,5.9.5,6.4l16.1,2.4c1.2.2,2.1,1,2.6,2l6.1,16.3c1.2,3.1,5.7,2.6,6.5-.6l4.2-17.9c.2-1.1,1-1.9,2-2.4l13.8-6c3.1-1.4,2.7-5.8-.6-6.3l-14.3-2.3c-1.1-.2-2.1-.9-2.5-2l-7.6-19.4c-1.2-3.2-6-2.5-6.5.9Z"/>
      <path class="cls-5" d="M544,1521.9l-14,73.4,14,76.8c36.2,4.7,109.9,14,115.5,14s46.7-34.9,66.5-52.4l-21-111.8c58.8-19.6,78.2-106,80.5-146.7,14-167.7-98-188.6-119-188.6s-154,0-171.5,139.7c-14,111.8,26.8,177,49,195.6Z"/>
      <path class="cls-3" d="M582.2,1210c-36.2,16.6-72.2,49.8-80.6,117.1-13.8,110,26.6,172.8,46.7,189.8l3,2.5-14.5,76,12.9,70.9c17.9,2.3,42.8,5.5,64.4,8.1,11.8,1.5,22.7,2.8,30.9,3.7,4.1.5,7.6.8,10.1,1.1,1.3.1,2.3.2,3.1.3.2,0,.4,0,.5,0,.3-.1.6-.3,1.1-.6,1.4-.8,3.4-2.1,5.8-3.9,4.8-3.4,10.9-8.2,17.6-13.7,12.1-9.9,25.8-21.5,35.6-30.1l-21.4-113.8,5.5-1.8c26.8-8.9,45.3-33.3,57.4-61.7,12.1-28.3,17.4-59.3,18.6-79.1h0c0,0,0-.2,0-.2,6.9-82.2-17.2-127.2-44.2-151.8-27.4-24.9-59-29.7-68.2-29.7s-47.6,0-84.3,16.9ZM658.2,1679.7s0,0,0,0c0,0,0,0,0,0ZM666.5,1180h0c11.8,0,46.8,5.6,77.1,33.2,30.7,27.8,55.6,77.1,48.5,162.5-1.2,21-6.8,53.5-19.6,83.4-12,28.1-31,55.1-60,67.1l20.7,110-2.8,2.5c-10,8.8-25.3,21.9-38.8,32.9-6.8,5.5-13.2,10.5-18.3,14.2-2.5,1.8-4.9,3.4-6.8,4.5-1,.6-2,1.1-2.9,1.5-.8.3-2.3.9-4,.9s-8.1-.7-16.1-1.6c-8.3-.9-19.2-2.3-31-3.7-23.7-2.9-51.2-6.4-69.3-8.7l-4.8-.6-15.1-82.8,13.5-70.9c-24.4-23.1-62-89.8-48.4-198.9,9.1-72.4,48.4-109.1,88.2-127.4,39.4-18.1,79.1-18.1,89.8-18.1Z"/>
      <path class="cls-5" d="M204.5,2388.2h856.9c168,0,133-190.5,94.5-284-35-108.3-104.3-264.4-188.4-397.2-67.2-106.2-193.7-130.4-245-129.2-4.7,21-24.5,62.9-94.5,62.9s-99.2-41.9-108.5-62.9c-36.2,0-136.5,19.6-220.5,97.8-104.9,97.7-150.4,321.1-192.4,527v.4c-33.7,164.9,51.2,189.8,97.9,185.1Z"/>
      <path class="cls-3" d="M727.7,1584.4c-3.3,11-10,25.3-23.4,37.6-15.7,14.4-39.8,25.3-76.2,25.3-69.2,0-100.9-39.4-112.7-62.8-37.9,1.4-132.3,21.9-211.9,96-51.2,47.7-88.4,126.5-118,220.1-29.6,93.4-51.4,200.4-72.4,303.4v.4c-16.7,81.5-3.6,126.5,17.3,150.5,21,24.1,51.4,29,73.5,26.8h.3s857.2,0,857.2,0c40.7,0,68.2-11.5,86.4-29.3,18.3-17.9,28.1-43.1,31.7-71.8,7.2-57.7-10.7-127.5-29.8-173.8v-.2c0,0-.2-.2-.2-.2-34.8-107.8-103.9-263.4-187.6-395.7-32.7-51.7-79.9-83.5-125.4-102.3-42.7-17.6-83.6-23.7-108.9-23.9ZM841.6,1596.1c47.4,19.6,97,52.9,131.5,107.5,84.3,133.1,153.8,289.6,189,398.4,19.4,47.2,38.2,119.3,30.5,180.2-3.8,30.6-14.4,58.9-35.6,79.6-21.3,20.8-52.4,33.1-95.7,33.1H204.8c-24.6,2.4-59.8-3-84.4-31.3-24.8-28.5-37.4-78.4-20.4-161.8v-.4c0,0,.1-.2.1-.2,21-102.8,42.9-210.5,72.7-304.6,29.8-94,67.8-175.7,121.6-225.8,85.4-79.5,187.4-99.6,225-99.6h4.3l1.7,3.9c8.6,19.3,35.8,59,102.5,59s54.4-10,67.3-21.8c13-11.9,18.6-26.3,20.8-35.9l1.1-5.1h5.2c26.6-.7,72,5.2,119.2,24.8Z"/>
      <path class="cls-4" d="M1092.9,2383.7c0-114.6,51.3-214.2,73.5-248,10.5,24.5,29.4,88.7,21,150.2-8.4,61.5-52.5,90.8-94.5,97.8Z"/>
      <path class="cls-5" d="M868.9,2324.3l-14-83.8-77,31.4,91,52.4Z"/>
      <path class="cls-3" d="M860,2231.2l17.7,105.8-114.8-66.1,97.1-39.7ZM792.9,2272.9l67.2,38.7-10.3-61.9-56.9,23.2Z"/>
      <path class="cls-6" d="M439,2119.3l52.5-213.1-10.5,213.1,257.8,62.8c18.7,4.6,35.7,16.1,41.8,34.4,19.8,60.1-2.8,130.2-30,154.4,21-30,21-143.2-3.5-160.7-19.6-14-262.5-59.4-381.5-80.3l73.5-10.5ZM582.5,1452.1c-14,81-33.8,89.7-42,83.8-98-62.9-95.6-263.8-35-331.9,56-62.9,98-38.4,213.5-66.4,115.5-28,154,21,133,83.8-30.2,90.5-126,41.9-150.5,52.4-24.5,10.5-56,38.4-70,94.3-14,55.9-21,45.4-31.5,14-10.5-31.4-38.5-76.8-59.5-21-16.8,44.7,21,79.2,42,90.8Z"/>
      <path class="cls-5" d="M995.6,2388.2c0-95-141.2-123.4-210-125.8,0,47.5-29.2,103.6-45.5,125.8h255.5Z"/>
      <path class="cls-3" d="M778.9,2255.7l6.8.2c35,1.2,88.4,9,133.3,28.7,44.7,19.6,83.1,52.2,83.1,103.7v6.6h-275.2l7.8-10.5c7.8-10.6,18.9-29.6,28.1-52,9.2-22.3,16.1-47.3,16.1-69.9v-6.8ZM792,2269.4c-1.2,22.9-8.3,47-16.9,68-7.1,17.2-15.3,32.7-22.6,44.3h236.2c-3.1-39.9-34.1-67.1-75-85-40.2-17.6-88-25.4-121.7-27.3ZM99,2263.1c-1.4,67,22.4,125.1,94.4,125.1h63.7c-16.8-111.8-105.7-179.3-147.7-199.1-.9,4.5-1.8,9-2.8,13.5v.4c-4.6,22.4-7,42.3-7.6,60Z"/>
      <path class="cls-6" d="M630.9,1521.9c33.6,11.2,61.8,4.7,73.5,0l7,41.9c-44.8-5.6-71.2-29.1-80.5-41.9ZM1082.4,2142.6l-227.5,80.3c60.4-42.4,94-56.6,154-80.3l-35-251.5,63,237.5,45.5,14Z"/>
      <path class="cls-5" d="M2460.8,1529.9l13.8,72.4-13.8,75.9c-35.6,4.6-108.3,13.8-113.8,13.8s-46-34.5-65.5-51.7l20.7-110.4c-57.9-19.3-77-104.6-79.3-144.9-13.8-165.6,96.6-186.3,117.3-186.3s151.8,0,169,138c13.8,110.4-26.4,174.8-48.3,193.2Z"/>
      <path class="cls-3" d="M2422.9,1222.5c35.6,16.3,70.9,48.9,79.1,115.1,13.6,108.5-26.2,170.3-45.8,186.8l-3.2,2.7,14.3,75.2-12.6,69.5c-17.6,2.3-41.9,5.3-63,8-11.6,1.4-22.3,2.7-30.4,3.7-4.1.5-7.5.8-10,1.1-1.3.1-2.3.2-3.1.3-.1,0-.2,0-.3,0-.2-.1-.5-.3-.9-.5-1.4-.8-3.3-2.1-5.6-3.8-4.7-3.4-10.8-8.1-17.4-13.5-11.9-9.6-25.1-21.1-34.8-29.5l21.1-112.5-5.9-2c-26.1-8.7-44.3-32.6-56.2-60.6-11.9-27.9-17.1-58.4-18.2-77.9h0c0,0,0-.2,0-.2-6.8-81,16.9-125.3,43.4-149.4,26.9-24.4,57.8-29.2,66.8-29.2s46.8,0,82.8,16.6ZM2348.5,1685.2s0,0,0,0c0,0,0,0,0,0ZM2340.1,1191.7h0c-11.8,0-46.3,5.6-76.4,32.9-30.4,27.6-55,76.5-48,161,1.2,20.8,6.7,52.9,19.4,82.6,11.8,27.7,30.5,54.4,59,66.3l-20.3,108.5,3,2.7c9.8,8.7,24.9,21.7,38.2,32.5,6.7,5.4,13,10.4,18,14,2.5,1.8,4.8,3.4,6.8,4.5,1,.6,2,1.1,3,1.5.8.3,2.4,1,4.2,1s8.1-.7,15.9-1.6c8.2-.9,18.9-2.2,30.6-3.7,23.3-2.9,50.4-6.3,68.2-8.6l5.2-.7,15-82.3-13.3-69.8c24.2-23.2,61.1-89.1,47.6-196.6-9-71.7-47.8-108.2-87.3-126.3-38.9-17.9-78.1-17.9-88.7-17.9Z"/>
      <path class="cls-5" d="M2378,1647.2c69,0,97.7-41.4,106.9-62.1l24.2,6.9-151.8,786.4h-393.2l231.1-745,79.3-48.3h10.3c4.6,20.7,24.2,62.1,93.1,62.1Z"/>
      <path class="cls-3" d="M2481,1576.6l-2.5,5.7c-8.4,18.9-35.1,57.9-100.4,57.9s-53.3-9.8-65.9-21.4c-12.7-11.7-18.2-25.8-20.3-35.1l-1.2-5.6h-18.1l-83.3,50.7-234.8,756.8h408.7l154.1-798.6-36.4-10.4ZM2279.4,1592.2c3.3,10.9,10,24.9,23.1,36.9,15.6,14.3,39.5,25.2,75.5,25.2,67,0,98.4-37.3,110.7-60.7l12.1,3.5-149.4,774.3h-377.7l227.4-733.3,75.3-45.9h2.9Z"/>
      <path class="cls-5" d="M2371.1,1995.6c19.3-124.2,86.2-327.7,117.3-413.9,58.6,10.3,189,50.4,241.5,127.6,52.4,77.3,123,333.4,151.8,451.9,31,106.9,31,224.2-86.2,224.2h-531.2c-55.2-106.9-37.9-158.7-20.7-179.4,13.8-16.6,75-29.9,103.9-34.5,7.5-61.8,15.8-124.6,23.7-175.9Z"/>
      <path class="cls-3" d="M2483.8,1573.6l5.9,1c29.8,5.3,77.7,18,124.7,39.2,46.9,21.1,94,51.1,121.4,91.4,13.6,20,28.1,51.1,42.5,87.9,14.5,36.9,29.2,80.1,43.1,124.4,27.8,88.6,52.7,182.3,67.1,241.7,15.6,53.8,23.8,111.3,12.5,155.8-5.7,22.4-16.4,42-33.9,55.8-17.5,13.9-41.2,21.5-71.7,21.5h-535.5l-2-3.9c-55.8-108.1-39.7-163.3-19.8-187.2,4.6-5.5,12.2-9.9,20.5-13.7,8.5-3.8,18.8-7.3,29.2-10.4,18.6-5.4,38.6-9.6,53.2-12.1,7.3-60.1,15.4-120.9,23.1-170.9,19.4-124.9,86.6-329,117.6-415.2l2-5.6ZM2493.1,1589.8c-31.8,89.2-96.1,286.1-114.9,406.9-8,51.2-16.2,113.9-23.7,175.7l-.6,5.3-5.3.8c-14.2,2.3-36.4,6.7-56.7,12.6-10.2,2.9-19.7,6.2-27.4,9.7-8,3.6-13.1,7-15.4,9.8-14.4,17.3-32.6,64.6,19.6,167.7h526.8c28.1,0,48.4-7,62.9-18.5,14.5-11.5,23.8-27.9,28.9-48.2,10.3-40.8,3-95.4-12.4-148.5h0c0-.1,0-.3,0-.3-14.3-59.1-39.1-152.6-66.9-240.9-13.9-44.2-28.5-87-42.8-123.5-14.4-36.6-28.4-66.5-41.1-85.1-25.1-37-69.4-65.7-115.4-86.4-42.9-19.3-86.4-31.4-115.5-37.1Z"/>
      <path class="cls-6" d="M2564.3,2119.8l-51.7-210.4,13.8,207-255.3,64.6c-19.9,5-38.1,17.4-43.7,37.1-16.8,58.8,9.3,126.6,29.9,150.1-21.1-24.2-20.7-141.4,3.4-158.7,19.3-13.8,258.7-58.6,376-79.3l-72.4-10.4ZM2436.7,1423l38,162.1c74.5,0,156.4,41.4,186.3,62.1,17.2-106.9-48.3-151.8-86.2-234.5-37.9-82.8-6.9-276-200.1-276s-177.1,138-169,207c69-19.3,109.2-90.8,120.7-124.2,6.9,17.2,65.5,172.5,86.2,134.5,20.7-37.9,51.7-48.3,69,0,13.8,38.6-24.1,62.1-44.8,69ZM2157.3,1616.2c46.9-46.9,65.5-155.2,69-203.5,11,80,55.2,111.5,75.9,117.3l-10.3,55.2c-60.7-2.8-115,19.6-134.5,31ZM2747.1,2385.4c16.5-110.4,100-180.5,141.4-200.1,22.4,90.2,17.2,200.1-79.3,200.1h-62.1Z"/>
      <path class="cls-6" d="M2374.4,1532c-33.1,11-64.3,1-75.8-3.6l-7.1,46.2c44.1-5.5,73.7-30,82.9-42.7Z"/>
      <path class="cls-5" d="M1659,1786.1c5.1,20.6,28.4,35.1,32.6,42.6l-76.8,66.9c-12.6-24.7-30.4-77.7-93.5-85.4-88.3-9.7-95.9-75.8-51.8-85.4,35.3-7.7,97,4.7,129.5,11.2l-37.2-16.2c-5.2-2.2-6.9-8.7-3.6-13.2,1.8-2.5,4.9-3.9,8-3.7,12.7.8,35.9,1.9,54.9,15.7,18.6,13.6,31.5,41.8,37.8,67.6Z"/>
      <path class="cls-3" d="M1564.1,1710.7c.3-.5,1-.8,1.8-.8h.4c13,.8,33.9,2,50.8,14.4,16.6,12.1,28.9,38.3,35.1,63.6,3,12.2,11.3,22.2,18.5,29.5,2.6,2.7,5.3,5.2,7.6,7.3.9.8,1.7,1.6,2.4,2.3.4.4.8.7,1.1,1l-64.4,56.1c0-.1-.1-.3-.2-.4-12.5-26.6-34.5-73.2-94.8-80.6h0c-42.7-4.7-63.6-22.7-69.7-38.3-3-7.8-2.5-15.1.5-20.7,3-5.6,8.9-10.4,18.2-12.5,16.4-3.6,39.6-2.6,63.4.4,22.9,2.8,45.5,7.3,61.7,10.5.5,0,1,.2,1.5.3l4.2-13.5-37.2-16.2c-1-.4-1.3-1.6-.7-2.5ZM1566.7,1695.7c-5.4-.3-10.8,2-14.1,6.6-4,5.5-4,12.6-.7,17.8-5.2-.8-10.4-1.5-15.7-2.2-24-3-49.3-4.3-68.2-.2-12.8,2.8-22.5,9.9-27.7,19.7-5.2,9.8-5.5,21.4-1.2,32.6,8.8,22.3,35.8,42.2,81.4,47.2,52,6.4,70.6,45.4,83.4,72.2,1.6,3.4,3.1,6.5,4.6,9.4l4.1,8.1,88-76.6-2.8-5c-1.7-3-4.8-6-7.4-8.6-.9-.9-1.8-1.7-2.7-2.6-2.2-2.1-4.5-4.3-6.9-6.7-6.8-6.9-12.8-14.6-14.8-22.9-6.4-26.2-19.8-56.5-40.5-71.7-20.3-14.8-44.8-16.3-57.6-17-.4,0-.7,0-1.1,0Z"/>
      <path class="cls-2" d="M2278,1581.7c-34.5,80.5-109,275.9-131.1,413.9-22.1,138-39.1,315-44.8,389.8h-169l5.5-13.8c-42.9-.3-88.7-12.4-115.9-31-55.2-37.9-244.5-386.3-244.5-427.7s79.3-110.4,113.8-110.4,60.2,43,104.2,86.2c48.4,47.5,97,95.2,109.6,86.2,9.4-6.7,15.7-25.9,24.9-54.2,14.5-44.5,36.3-111.3,89-187.2,21.9-31.5,47.7-57.4,74.4-78.3,55.8-53.4,145-71.3,183.9-73.5Z"/>
      <path class="cls-3" d="M2289.1,1573.9l-4.5,10.5c-34.5,80.4-108.7,275.2-130.6,412.2-22,137.7-39,314.6-44.8,389.2l-.5,6.6h-186.1l5.6-14.1c-40.8-2-83.1-13.8-109.5-32-7.9-5.4-17.4-15.8-27.9-29-10.6-13.5-22.7-30.5-35.5-49.9-25.6-38.8-54.6-87.4-81.7-136-27.2-48.6-52.7-97.4-71.3-136.6-9.3-19.6-17-36.9-22.4-50.7-2.7-6.9-4.8-13-6.3-18.1-1.4-4.9-2.4-9.5-2.4-13.2,0-12.4,5.8-25.9,14.1-38.6,8.4-12.9,19.8-25.8,32.2-37.3,12.4-11.5,26-21.8,38.8-29.2,12.6-7.3,25.3-12.4,35.9-12.4s7,1.1,10.3,2.5c3.3,1.5,6.9,3.6,10.7,6.1,7.5,5,16.2,11.9,25.5,20.1,18.7,16.3,40.7,38,62.7,59.5h.1c24.2,23.9,48.3,47.6,67.8,64.1,9.8,8.3,18.1,14.5,24.6,18.1,3.3,1.8,5.7,2.7,7.3,3.1.6.1.9.1,1.1.1,2.9-2.2,6.1-7,9.8-15.8,3.7-8.8,7.5-20.4,12.1-34.6h0c14.5-44.7,36.6-112.3,89.9-189.1,22.2-32,48.5-58.4,75.6-79.6,28.9-27.5,66.1-45.7,100.7-57.3,34.7-11.6,67.4-16.8,87.5-17.9l11.5-.6ZM1943.6,2378.2h151.9c6.2-78.2,22.9-249.4,44.4-383.8,21.3-133,90.8-318.4,126.9-404.7-18.9,2.1-44.8,7-72.2,16.2-33.6,11.2-68.8,28.6-95.6,54.3l-.3.2-.3.2c-26.2,20.4-51.6,45.9-73,76.7-52.1,75-73.6,141-88.1,185.4v.3c-4.6,13.9-8.6,26-12.6,35.5-3.9,9.3-8.5,17.4-14.9,22-3.8,2.7-8.3,2.8-11.9,2-3.7-.7-7.5-2.4-11.3-4.6-7.7-4.3-16.9-11.3-26.9-19.7-20-16.9-44.4-40.9-68.4-64.5l-.2-.2c-22.1-21.7-43.8-43.1-62.2-59.1-9.2-8-17.3-14.5-24-18.9-3.4-2.2-6.2-3.8-8.6-4.9-2.4-1.1-3.9-1.3-4.5-1.3-6.7,0-16.8,3.5-28.8,10.5-11.8,6.8-24.5,16.4-36.2,27.3-11.8,10.9-22.3,23-29.9,34.7-7.7,11.9-11.8,22.5-11.8,30.8s.5,4.5,1.9,9.2c1.3,4.6,3.3,10.2,5.9,16.9,5.2,13.3,12.7,30.3,22,49.8,18.5,38.9,43.8,87.4,70.9,135.8,27.1,48.4,55.8,96.6,81.2,135.1,12.7,19.2,24.5,35.9,34.8,48.9,10.4,13.2,18.9,22,24.8,26.1,25.7,17.7,70,29.5,111.9,29.8h10.4c0,0-5.5,13.8-5.5,13.8Z"/>
      <path class="cls-6" d="M2050.4,1923.2c-11,134.1-55,374-73.3,462.2h-44c20.5-45.2,88-321.1,117.3-462.2Z"/>
      <path class="cls-6" d="M1753.7,2250.8c24.2,41.4,51.7,96.6,110.4,110.4,25.7,8.6,51.9,11.2,75.9,10.5l37.9-50.8c-80.9-46.4-178.6-67.3-224.2-70.1Z"/>
      <path class="cls-5" d="M2015.9,2385.4c0-93.8,139.1-121.9,207-124.2,0,46.9,24.1,93.1,44.8,124.2h-251.8Z"/>
      <path class="cls-3" d="M2229.9,2253.8l-7.3.2c-34.5,1.2-87.2,8.9-131.5,28.4-44.1,19.4-82.3,51.7-82.3,102.9v7.1h272.2l-7.4-11.1c-20.5-30.7-43.6-75.5-43.6-120.2v-7.4ZM2215.9,2268.6c2.1,41,20.7,80.5,38.8,109.6h-231.4c3.3-38.7,33.5-65.2,73.5-82.8,39.3-17.3,86-24.9,119.1-26.8Z"/>
    </g>
  </g>
</svg>