<?xml version="1.0" encoding="UTF-8"?>
<svg xmlns="http://www.w3.org/2000/svg" version="1.1" xmlns:xlink="http://www.w3.org/1999/xlink" viewBox="0 0 100 100">
  <defs>
    <style>
      .cls-1 {
        fill: #2f2e41;
      }

      .cls-2 {
        fill: #ffb6b6;
      }

      .cls-3 {
        fill: #3f3d56;
      }

      .cls-4 {
        fill: #f2f2f2;
      }

      .cls-5 {
        fill: #fff;
        opacity: .8;
        stroke: url(#linear-gradient);
        stroke-miterlimit: 10;
        stroke-width: 2px;
      }

      .cls-6 {
        fill: #2f4858;
      }

      .cls-7 {
        fill: #dd4f80;
      }

      .cls-8 {
        fill: #e6e6e6;
      }
    </style>
    <linearGradient id="linear-gradient" x1="8.6" y1="55" x2="84.3" y2="55" gradientTransform="translate(31.8 -22) rotate(21.9) scale(1 1.1) skewX(-1.9)" gradientUnits="userSpaceOnUse">
      <stop offset="0" stop-color="#fc5c56"/>
      <stop offset="1" stop-color="#dd4f80"/>
    </linearGradient>
  </defs>
  <!-- Generator: Adobe Illustrator 28.7.1, SVG Export Plug-In . SVG Version: 1.2.0 Build 142)  -->
  <g>
    <g id="sw-js-blob-svg">
      <path class="cls-5" d="M58.1,85.8c-7.5,5.1-16.7,9-23,6.4-6.3-2.6-9.9-11.6-14.3-20-4.4-8.4-9.6-16.3-8.7-24,1-7.8,8-15.4,15.5-22.2,7.5-6.8,15.4-12.6,23.9-14.4,8.5-1.7,17.8.4,25.7,5.8,8,5.3,14.7,13.6,14.4,22.5-.2,9-7.2,18.6-13.6,26.6-6.5,8-12.4,14.2-19.9,19.3Z"/>
      <path class="cls-6" d="M40.2,32.9c.6-.7,1.6-.5,2.2,0,.8.6,1.1,1.7,1.2,2.7.2,1.6.3,4,2.1,4.7.9.3,1.8,0,2.6-.5.8-.6,1.3-1.4,1.6-2.3.4-1.1.6-2.2.8-3.4.2-1.2.3-2.3.4-3.5,0-1.2,0-2.3,0-3.5,0-.9,0-1.8.3-2.7.3-.9,1-1.5,2-1.6.9,0,1.9.3,2.5.9,1.6,1.5,1.7,3.9,2,5.9.2,1,.5,2.1,1,3,.5.8,1.1,1.4,1.9,1.8,1.5.9,3.4,1.2,5.1.6,1.6-.6,3-2,3.5-3.7.1-.4.2-.8.3-1.3,0-.2-.3-.2-.3,0-.2,1.8-1.4,3.5-3,4.4-1.7.9-3.7.8-5.3-.1-.8-.5-1.5-1.1-2-1.9-.6-1-.8-2.1-1-3.1-.3-2-.5-4.2-1.9-5.7-1.1-1.2-3.2-1.6-4.5-.3-1.3,1.3-.9,3.5-.8,5.2,0,2.4-.2,4.9-.7,7.3-.2,1-.5,2.1-1.1,3-.6.8-1.5,1.4-2.5,1.4-1,0-1.7-.8-2.1-1.6-.4-.9-.4-1.9-.5-2.9-.1-.9-.3-1.9-1-2.6-.5-.5-1.3-.8-2.1-.7-.4,0-.7.2-.9.5-.1.1,0,.4.2.2h0Z"/>
      <g>
        <path class="cls-4" d="M71.6,66.4c-.2-.3-.9,0-1.1-.2-.1-.3.6-.7,1-1.6,0-.2.5-1.2.2-1.6-.6-.6-3.6,1.9-4.6,1.1-.2-.2-.4-.6-1.1-1.1-.3-.2-.4-.3-.6-.3-.2,0-.2.4-.5,1-.4.9-.6.8-.8,1.6-.2.5-.1.8-.3.9-.3,0-.5-.5-.8-.4-.3,0-.5.7-.6,1.2-.1.9.2,1.5.4,2.2.2.7.3,1.7-.1,3.2l-4.7,13.1c1-2.7,4-10.1,5.3-12.8.4-.8.8-1.6,1.6-1.9.8-.3,1.9-.1,3.2-.5.2,0,.6-.2.7-.4,0-.2-.2-.3-.2-.5,0-.3.6-.3,1.2-.6.4-.2.7-.5,1-.7,0,0,1.1-1.1.9-1.5h0Z"/>
        <path class="cls-4" d="M53.3,73.3c-.2,0-.3.5-.4.5-.2,0-.2-.5-.5-.9,0,0-.5-.6-.7-.5-.5.1,0,2.3-.8,2.6-.2,0-.4,0-.9.2-.2,0-.3.1-.3.2,0,.1.1.2.3.5.3.4.2.5.5.8.2.2.4.3.4.4,0,.2-.4.1-.5.3,0,.2.2.5.4.6.4.3.8.3,1.2.4.4.1,1,.3,1.5,1l5.1,6.1c-1-1.3-3.8-4.9-4.8-6.3-.3-.4-.6-.8-.5-1.3,0-.5.5-1,.7-1.7,0,0,.1-.3,0-.4,0,0-.2,0-.3,0-.1-.1,0-.4,0-.8,0-.3,0-.5,0-.7,0,0-.2-.9-.5-.9h0Z"/>
        <path class="cls-4" d="M57.2,74.2v-1.1c-.1,0,0,0,0,0,.3-.4.4-.7.4-1.1,0,0,0-.1,0-.2,0-.2,0-.5.1-.8,0-.2.3-.6.6-.5,0,0,.2,0,.2.1,0,0,0,0,0,0,.1-.2.2-.2.3-.3,0,0,.1-.1.2-.2,0,0,0-.1.1-.1,0-.1.2-.3.4-.3.2,0,.3.2.4.3.1.2.2.4.2.5,0,0,0,0,0,0,0,.1.6,0,.8,0,.5,0,.9-.1,1.1.2.1.2,0,.5-.3.9,0,.1-.2.2-.3.3,0,0,.1.1.2.2h0c0,.3-.2.5-.7.8-.1,0-.3.1-.5.2-.1,0-.2,0-.3,0,0,0,0,.1,0,.2,0,.2-.3.2-.5.2-.3,0-.6,0-.8-.1-.2,0-.4,0-.5,0-.2,0-.4.2-.6.5l-.5.6h0Z"/>
        <path class="cls-4" d="M57.7,67.9l-1,.4h0c-.4-.2-.8-.2-1.1-.1,0,0-.1,0-.2,0-.2,0-.5.1-.8,0-.2,0-.6-.1-.7-.5,0,0,0-.2,0-.2,0,0,0,0,0,0-.2,0-.3-.1-.4-.2,0,0-.1,0-.3-.2,0,0-.1,0-.2,0-.1,0-.3-.1-.4-.3,0-.2,0-.4.2-.5.2-.2.3-.3.4-.3,0,0,0,0,0,0,0,0-.2-.6-.2-.8-.2-.4-.4-.8-.1-1.1.2-.2.5-.2.9,0,.1,0,.2.1.3.2,0,0,0-.2.2-.2h0c.2-.1.5,0,.9.4,0,.1.2.2.3.5,0,.1,0,.2,0,.3,0,0,.1,0,.2,0,.2,0,.3.2.4.5,0,.3,0,.6,0,.8,0,.2,0,.4,0,.5,0,.2.3.4.6.5l.8.4h0Z"/>
        <path class="cls-4" d="M57.2,64.8v-1.1c-.1,0,0,0,0,0,.3-.4.4-.7.4-1.1,0,0,0-.1,0-.2,0-.2,0-.5.1-.8,0-.2.3-.6.6-.5,0,0,.2,0,.2.1,0,0,0,0,0,0,.1-.2.2-.2.3-.3,0,0,.1-.1.2-.2,0,0,0-.1.1-.1,0-.1.2-.3.4-.3.2,0,.3.2.4.3.1.2.2.4.2.5,0,0,0,0,0,0,0,.1.6,0,.8,0,.5,0,.9-.1,1.1.2.1.2,0,.5-.3.9,0,.1-.2.2-.3.3,0,0,.1.1.2.2h0c0,.3-.2.5-.7.8-.1,0-.3.1-.5.2-.1,0-.2,0-.3,0,0,0,0,.1,0,.2,0,.2-.3.2-.5.2-.3,0-.6,0-.8-.1-.2,0-.4,0-.5,0-.2,0-.4.2-.6.5l-.5.6h0Z"/>
        <path class="cls-4" d="M58.3,85.3h-.2c0-.1,0-.4,0-.4v.3c0,0-.2,0-.2,0,0,0,0,0,0-.2-.1-.5-.5-1.9-.8-4.2-.2-1.6-.3-3.2-.3-4.8,0-1.6,0-2.9.1-3.9,0-.7.1-1.5.2-2.2.1-1.9.3-3.6.2-5.5,0-.4,0-1.3-.6-2.3-.3-.6-.7-1-1.3-1.5l.3-.4c.6.5,1,1,1.4,1.6.6,1.1.6,2,.7,2.5.1,2,0,3.7-.2,5.6,0,.7-.1,1.4-.2,2.1,0,1-.1,2.2-.1,3.8,0,1.6.1,3.2.3,4.8.3,2.2.6,3.7.8,4.1,0,.2,0,.3,0,.4h0Z"/>
        <path class="cls-4" d="M54.3,61.6s0,0,0,0c-.4,0-.9-.3-1.2-.8-.2-.2-.3-.5-.4-1,0,0-.2-.5-.2-1.1,0-.4,0-.5,0-.7,0-.2.2-.3.4-.3,0,0,0-.1,0-.2,0-.2.3-.2.5-.2,0,0,.1,0,.2,0,.1,0,.2,0,.3-.1.1,0,.2-.1.4-.2.4,0,.7,0,.8,0,.6.2.8.6,1.2,1.1,0,.1.3.5.4,1,.1.4,0,.5,0,.7,0,.2-.2.4-.6.7-.4.3-.6.5-.8.6-.4.2-.7.4-1,.4h0Z"/>
      </g>
      <path class="cls-8" d="M57.1,20.1h-7.1c-.2,0-.3-.1-.3-.3s.1-.3.3-.3h7.1c.2,0,.3.1.3.3s-.1.3-.3.3Z"/>
      <path class="cls-8" d="M68.2,39.1h-7.1c-.2,0-.3-.1-.3-.3s.1-.3.3-.3h7.1c.2,0,.3.1.3.3s-.1.3-.3.3Z"/>
      <path class="cls-8" d="M74,52h-7.1c-.2,0-.3-.1-.3-.3s.1-.3.3-.3h7.1c.2,0,.3.1.3.3s-.1.3-.3.3Z"/>
      <path class="cls-8" d="M41.4,13h-7.1c-.2,0-.3-.1-.3-.3s.1-.3.3-.3h7.1c.2,0,.3.1.3.3s-.1.3-.3.3h0Z"/>
      <path class="cls-8" d="M70.3,48.3h-32.4c-.1,0-.2,0-.2-.2v-30.9c0-.1,0-.2.2-.2s.2,0,.2.2v12.6c0,10,8.1,18.1,18.1,18.1h14.1c.1,0,.2,0,.2.2s0,.2-.2.2h0Z"/>
      <path class="cls-8" d="M44.8,35.8h-7.1c-.2,0-.3-.1-.3-.3s.1-.3.3-.3h7.1c.2,0,.3.1.3.3s-.1.3-.3.3Z"/>
      <g>
        <path id="uuid-5c502ea6-9d8d-47ac-9944-b5b4822d592a-5174" class="cls-2" d="M37.7,36.8c1.1-.4,1.9-1.3,1.6-2s-1.4-1-2.5-.6c-.5.1-.9.4-1.2.7l-4.8,1.6.8,2.2,4.6-1.9c.5,0,1,0,1.4-.1h0Z"/>
        <path id="uuid-ca9917be-6801-4c2d-b7fb-204f6c00dfb7-5175" class="cls-2" d="M13.1,49.5c0,1.2.7,2.1,1.4,2.1s1.3-1,1.3-2.2c0-.5-.1-.9-.4-1.4l-.2-5.1-2.4.2.5,5c-.2.4-.3.9-.3,1.4h0Z"/>
        <g>
          <polygon class="cls-2" points="18.6 83.6 20.7 83.6 21.2 75.4 18.6 75.4 18.6 83.6"/>
          <path class="cls-1" d="M25.8,83.5h0c0,.1.1.5.1.6h0c0,.4-.3.7-.7.7h-6.5c-.3,0-.5-.2-.5-.5v-.3s-.3-.8.3-1.8c0,0,.8.8,2.1-.4l.4-.7,2.6,1.9,1.5.2c.3,0,.6,0,.8.3h0,0Z"/>
        </g>
        <g>
          <polygon class="cls-2" points="23.6 83.6 25.7 83.6 26.2 75.4 23.6 75.4 23.6 83.6"/>
          <path class="cls-1" d="M30.8,83.5h0c0,.1.1.5.1.6h0c0,.4-.3.7-.7.7h-6.5c-.3,0-.5-.2-.5-.5v-.3s-.3-.8.3-1.8c0,0,.8.8,2.1-.4l.4-.7,2.6,1.9,1.5.2c.3,0,.6,0,.8.3h0,0Z"/>
        </g>
        <circle class="cls-2" cx="19.8" cy="19.3" r="3.1"/>
        <polygon class="cls-1" points="15.5 45.2 17 66.1 17.8 80.1 21.8 79.9 21.4 64.6 22.2 55.2 23.4 79.9 26.6 79.9 27.8 45.4 21 44.5 15.5 45.2"/>
        <path class="cls-1" d="M20.9,21.8c-.9.9-2.9.3-4,0-.6-.2-.9-.3-1-.6,0-.2,0-.4-.2-.8,0-.2-.2-.3-.2-.4-.2-.4,0-.8.2-1.3.3-.9,0-1,.2-1.7.4-.9,1.5-1.3,1.9-1.5.7-.2,1.3-.2,1.5-.2,1.1,0,1.8.6,2.1.8.5.4.8.8,1.3,1.7.4.7.5,1,.4,1.3,0,.4-.3.4-.4.8-.2.5,0,.8-.2,1-.2.2-.3,0-.6.2-.4.2-.7.5-.8.6Z"/>
        <path class="cls-7" d="M23.4,24.9s-3.1-4-7.1-2.5l-1.3,2.5-.4.4c-1.8,1.7-2.6,4.2-2.2,6.6l1.9,11.3s-.2,4.4,1.3,5.6c0,0,2.1-4,7.1-2.1s6.1.8,6.1.8l-1.7-11.9-3.6-10.9h0Z"/>
        <path class="cls-7" d="M22.4,25.6l-1,2.3,4,13.4,10.9-4-1.5-2.5-5.2,1.5s-4-11.7-7.1-10.7Z"/>
        <polygon class="cls-7" points="15 46.5 12.7 46.5 12.3 29.8 15 35.5 15 46.5"/>
      </g>
      <circle class="cls-3" cx="40.1" cy="32.9" r=".9"/>
      <circle class="cls-3" cx="46.4" cy="40.2" r=".9"/>
      <circle class="cls-3" cx="53.5" cy="22.6" r=".9"/>
      <circle class="cls-3" cx="64" cy="35.2" r=".9"/>
      <circle class="cls-3" cx="70" cy="30.2" r=".9"/>
      <g>
        <path class="cls-3" d="M68.2,10.2l1.7.8c-.7-1-1.3-2.5-1.6-3.7-.6,1.1-1.4,2.5-2.3,3.4l1.8-.5c-1.1,5.5-5.3,9.4-10.2,9.4v.2c5,0,9.4-3.9,10.6-9.6h0Z"/>
        <path class="cls-6" d="M63,1.9h10.9c.5,0,.8.4.8.8s-.4.8-.8.8h-10.9c-.5,0-.8-.4-.8-.8s.4-.8.8-.8Z"/>
      </g>
      <path class="cls-8" d="M70.4,50c-.1,0-.2,0-.3,0-.3-.1-.4-.4-.5-.7v-2.4c-.1-.3,0-.6.3-.7.3-.1.6-.1.9,0l1.7,1.3c.2.2.3.4.3.6,0,.3-.1.5-.3.6l-1.5,1.2c-.1.1-.3.2-.5.2Z"/>
      <path class="cls-8" d="M39.9,17.3c0,.1,0,.2,0,.3-.1.3-.4.4-.7.5h-2.4c-.3.1-.6,0-.7-.3-.1-.3-.1-.6,0-.9l1.3-1.7c.2-.2.4-.3.6-.3.3,0,.5.1.6.3l1.2,1.5c.1.1.2.3.2.5Z"/>
      <path class="cls-6" d="M53.4,15.2c-1.2-.3-2.6,0-3.6.7-1.1.7-1.8,1.9-2.1,3.2-.5,2.7,1.1,5.4,3.5,6.4,2.6,1.1,5.7.4,7.6-1.7.9-1,1.5-2.3,1.7-3.7.2-1.4,0-2.9-.8-4.1-.8-1.1-2.2-1.5-3.5-1.7-1.3-.2-3-.3-3.7,1.1-.1.3-.2.5-.2.8,0,.2.3.2.3,0,0-.6.4-1.2.9-1.4.6-.3,1.4-.3,2.1-.2,1.2.1,2.6.4,3.5,1.3.9.9,1.1,2.4,1.1,3.6,0,1.3-.5,2.6-1.3,3.6-1.6,2.1-4.3,3-6.8,2.4-2.4-.6-2.5-2.1-2.4-4.7,0-1.4-1.3-3.5-.2-4.4,1-.9,2.5-1.3,3.8-.9.2,0,.3-.3,0-.3h0Z"/>
    </g>
  </g>
</svg>