<svg xmlns="http://www.w3.org/2000/svg" fill="none" viewBox="0 0 3000 3000" id="Womanworkingoncomputer">
  <path fill="#fc5c56" d="M574.784 1136.63C533.894 1503.35 474.83 1553.15 234.031 1833.85C108.684 1979.97 145.818 2201.74 220.017 2386.66C284.415 2547.15 452.868 2630.68 626.246 2630.68H1996.6C2128.16 2630.68 2612.01 2251.99 2705.63 2159.83C3078.18 1793.11 2864.65 1055.13 2601.13 910.255C2337.61 765.377 2037.75 1041.55 1565.24 615.971C1092.73 190.391 612.646 797.069 574.784 1136.63Z" class="colore7e8ff svgShape"></path>
  <path fill="#fc5c56" d="M1986.55 705.546C1846.08 665.005 1727.79 553.516 1686.2 502.84C1616.89 360.024 1949.58 442.949 2055.86 502.84C2162.14 562.73 2305.38 581.158 2277.65 645.655C2249.93 710.153 2162.14 756.222 1986.55 705.546Z" class="colore7e8ff svgShape"></path>
  <path fill="#ffffff" d="M1921.85 2603.33H1474.17C1349.55 2557.05 1183.4 2501.52 1224.94 2395.09 1266.48 2288.65 1474.17 2432.11 1529.55 2330.3 1584.94 2228.49 1137.25 2214.61 1183.4 2085.04 1229.56 1955.47 1511.09 2122.06 1474.17 1997.11 1437.25 1872.17 1123.4 1918.45 1137.25 1788.87 1151.1 1659.3 1386.48 1872.17 1414.17 1724.09 1441.86 1576 1188.02 1312.23 1386.48 1265.96 1584.94 1219.68 1529.55 1700.95 1598.78 1724.09 1668.01 1747.23 1732.63 1497.34 1829.55 1608.4 1926.47 1719.46 1760.32 1969.35 1829.55 2085.04 1898.78 2200.73 1995.7 1770.36 2106.47 1969.35 2195.08 2128.54 2020.31 2458.33 1921.85 2603.33ZM2317.72 1472.56 2335.96 1568.31 2317.72 1668.62C2270.61 1674.7 2174.56 1686.86 2167.26 1686.86 2159.97 1686.86 2106.47 1641.27 2080.63 1618.47L2107.99 1472.56C2031.39 1447.03 2006.16 1334.26 2003.12 1281.06 1984.88 1062.2 2130.78 1034.85 2158.14 1034.85 2185.5 1034.85 2358.76 1034.85 2381.56 1217.23 2399.8 1363.13 2346.6 1448.24 2317.72 1472.56Z" class="colorffffff svgShape"></path>
  <path fill="#606060" fill-rule="evenodd" d="M2267.75 1065.93C2314.82 1087.57 2361.55 1130.67 2372.51 1218.36C2390.44 1361.8 2337.94 1443.62 2311.85 1465.59L2307.77 1469.03L2326.69 1568.35L2309.95 1660.43C2286.64 1663.43 2254.48 1667.51 2226.44 1670.97C2211.04 1672.87 2196.91 1674.58 2186.18 1675.81C2180.82 1676.42 2176.33 1676.91 2172.97 1677.25C2171.29 1677.42 2169.93 1677.55 2168.9 1677.63C2168.7 1677.65 2168.52 1677.66 2168.36 1677.68C2168.04 1677.51 2167.62 1677.29 2167.1 1676.98C2165.25 1675.9 2162.73 1674.22 2159.6 1671.97C2153.38 1667.5 2145.36 1661.22 2136.65 1654.14C2120.93 1641.35 2103.29 1626.22 2090.55 1615.05L2118.41 1466.43L2110.87 1463.91C2076.22 1452.36 2052.2 1420.68 2036.35 1383.6C2020.59 1346.73 2013.69 1306.31 2012.22 1280.54L2012.21 1280.42L2012.2 1280.3C2003.27 1173.11 2034.55 1114.56 2069.67 1082.63C2105.28 1050.25 2146.26 1043.97 2158.14 1043.97C2171.63 1043.97 2220.08 1044.01 2267.75 1065.93ZM2158.22 1025.73H2158.14C2142.67 1025.73 2097.01 1033.12 2057.4 1069.14C2017.3 1105.59 1984.75 1170.11 1994.02 1281.7C1995.6 1309.13 2002.85 1351.63 2019.58 1390.77C2035.24 1427.39 2059.92 1462.67 2097.61 1478.41L2070.71 1621.88L2074.6 1625.31C2087.57 1636.75 2107.5 1653.94 2125.14 1668.29C2133.95 1675.45 2142.29 1682 2148.96 1686.79C2152.27 1689.17 2155.33 1691.23 2157.9 1692.73C2159.18 1693.48 2160.51 1694.19 2161.8 1694.74C2162.83 1695.17 2164.88 1695.98 2167.26 1695.98C2169.76 1695.98 2177.87 1695.12 2188.26 1693.93C2199.07 1692.69 2213.26 1690.97 2228.68 1689.07C2259.51 1685.27 2295.32 1680.71 2318.89 1677.67L2325.5 1676.81L2345.24 1568.27L2327.64 1475.9C2359.61 1445.44 2408.38 1358.32 2390.61 1216.1C2378.77 1121.41 2327.47 1073.31 2275.37 1049.36C2223.97 1025.73 2172.2 1025.73 2158.22 1025.73Z" clip-rule="evenodd" class="color032068 svgShape"></path>
  <path fill="#606060" d="M2196.05 1472.56C2153.58 1486.72 2117.9 1478.46 2103.15 1472.56L2094.31 1525.64C2150.93 1518.57 2184.25 1488.78 2196.05 1472.56Z" class="color032068 svgShape"></path>
  <path fill="#ffffff" d="M2208.3 1627.59C2299.49 1627.59 2337.48 1572.87 2349.64 1545.52L2381.56 1554.63L2180.94 2594.21H2149.02H1661.15L1966.64 1609.35L2071.51 1545.52H2085.19C2091.27 1572.87 2117.11 1627.59 2208.3 1627.59Z" class="colorffffff svgShape"></path>
  <path fill="#606060" fill-rule="evenodd" d="M2344.53 1534.57L2341.31 1541.81C2330.14 1566.93 2294.86 1618.47 2208.3 1618.47C2164.66 1618.47 2137.71 1605.44 2120.99 1590.09C2104.11 1574.59 2096.85 1555.93 2094.09 1543.54L2092.5 1536.4H2068.95L1958.95 1603.35L1648.78 2603.33H2188.47L2392.09 1548.16L2344.53 1534.57ZM2078.15 1554.63C2082.46 1569.04 2091.34 1587.62 2108.66 1603.53C2129.18 1622.37 2160.74 1636.71 2208.3 1636.71C2296.87 1636.71 2338.34 1587.25 2354.5 1556.39L2371.02 1561.11L2173.41 2585.09H1673.53L1974.33 1615.34L2074.07 1554.63H2078.15Z" clip-rule="evenodd" class="color032068 svgShape"></path>
  <path fill="#ffffff" d="M2199.18 2088.1C2224.71 1923.96 2313.16 1654.94 2354.2 1540.96C2431.71 1554.63 2604.06 1607.52 2673.37 1709.66C2742.67 1811.79 2835.99 2150.41 2873.99 2306.96C2915.02 2448.3 2915.02 2603.33 2760 2603.33H2057.83C1984.88 2461.98 2007.68 2393.59 2030.47 2366.23C2048.71 2344.35 2129.63 2326.71 2167.8 2320.64C2177.72 2238.96 2188.63 2155.88 2199.18 2088.1Z" class="colorffffff svgShape"></path>
  <path fill="#606060" fill-rule="evenodd" d="M2348.22 1530.64L2355.79 1531.98C2395.21 1538.93 2458.41 1555.78 2520.61 1583.82C2582.61 1611.78 2644.85 1651.4 2680.91 1704.54C2698.84 1730.95 2717.97 1772.06 2737.1 1820.72C2756.29 1869.55 2775.71 1926.56 2794.12 1985.17C2830.9 2102.3 2863.76 2226.18 2882.8 2304.61C2903.41 2375.68 2914.2 2451.61 2899.36 2510.38C2891.87 2540.01 2877.75 2565.76 2854.64 2584.05C2831.51 2602.35 2800.3 2612.45 2760 2612.45H2052.28L2049.73 2607.51C1976 2464.66 1997.28 2391.82 2023.47 2360.39C2029.43 2353.23 2039.55 2347.33 2050.52 2342.41C2061.81 2337.34 2075.27 2332.76 2089.12 2328.75C2113.79 2321.6 2140.38 2316.06 2159.58 2312.76C2169.28 2233.24 2179.89 2152.75 2190.17 2086.7C2215.85 1921.6 2304.59 1651.85 2345.62 1537.87L2348.22 1530.64ZM2360.17 1551.34C2318.11 1669.13 2233.04 1929.7 2208.19 2089.5C2197.67 2157.14 2186.77 2240.1 2176.86 2321.74L2176.03 2328.56L2169.24 2329.64C2150.42 2332.64 2121.03 2338.49 2094.2 2346.26C2080.77 2350.15 2068.2 2354.46 2057.99 2359.05C2047.47 2363.77 2040.63 2368.29 2037.48 2372.07C2018.31 2395.08 1994.33 2457.79 2063.41 2594.21H2760C2797.21 2594.21 2824.13 2584.93 2843.32 2569.74C2862.53 2554.55 2874.91 2532.71 2881.67 2505.91C2895.32 2451.89 2885.62 2379.72 2865.23 2309.5L2865.17 2309.3L2865.13 2309.11C2846.16 2230.99 2813.39 2107.39 2776.72 1990.64C2758.38 1932.25 2739.1 1875.68 2720.12 1827.4C2701.08 1778.95 2682.55 1739.43 2665.82 1714.78C2632.58 1665.78 2573.99 1627.9 2513.11 1600.45C2456.3 1574.83 2398.56 1558.79 2360.17 1551.34Z" clip-rule="evenodd" class="color032068 svgShape"></path>
  <path fill="#ffffff" d="M1902.81 2088.1C1931.99 1905.72 2030.48 1647.34 2076.07 1540.96C2022.88 1544 1898.25 1569.22 1825.29 1645.82C1734.1 1741.57 1588.2 2097.22 1560.84 2133.69C1506.13 2197.53 1086.32 2367.5 1077.53 2398.15C1041.06 2448.3 1082.09 2580.53 1127.69 2603.33H1843.54C1851.13 2504.54 1873.63 2270.48 1902.81 2088.1Z" class="colorffffff svgShape"></path>
  <path fill="#606060" fill-rule="evenodd" d="M2090.25 1531.01L2084.45 1544.55C2038.91 1650.83 1940.81 1908.33 1911.81 2089.54C1882.69 2271.58 1860.22 2505.36 1852.63 2604.03L1851.98 2612.45H1125.53L1123.61 2611.48C1109.88 2604.62 1097.65 2590.28 1087.63 2573.34C1077.46 2556.15 1068.91 2535.13 1063.03 2513.38C1057.15 2491.63 1053.85 2468.78 1054.45 2447.9C1055.04 2427.65 1059.32 2408.32 1069.44 2393.79C1070.31 2391.82 1071.54 2390.18 1072.63 2388.92C1074.14 2387.17 1075.99 2385.45 1078.01 2383.79C1082.04 2380.47 1087.42 2376.79 1093.77 2372.85C1106.53 2364.95 1124.13 2355.41 1144.9 2344.76C1179.2 2327.18 1222.73 2306.29 1268.55 2284.3C1278.29 2279.62 1288.13 2274.9 1298.01 2270.15C1354.47 2242.99 1412.17 2214.88 1459.16 2189.6C1482.65 2176.96 1503.33 2165.1 1519.78 2154.47C1536.25 2143.82 1547.74 2134.86 1553.72 2127.99C1556.6 2124.07 1561.46 2115.35 1568.18 2102.07C1574.91 2088.78 1583.17 2071.61 1592.64 2051.63C1597.9 2040.53 1603.54 2028.58 1609.48 2015.96C1624.9 1983.24 1642.4 1946.08 1660.93 1908C1686.61 1855.21 1714.35 1800.44 1741.42 1752.81C1768.39 1705.38 1795.06 1664.34 1818.69 1639.54C1856.54 1599.8 1907.41 1573.72 1955.11 1557.19C2002.84 1540.65 2048.13 1533.42 2075.55 1531.85L2090.25 1531.01ZM1961.08 1574.42C1914.92 1590.42 1867.01 1615.25 1831.9 1652.11C1809.93 1675.18 1784.17 1714.51 1757.28 1761.83C1730.49 1808.95 1702.95 1863.32 1677.33 1915.98C1658.86 1953.95 1641.43 1990.94 1626.03 2023.63C1620.07 2036.27 1614.42 2048.28 1609.12 2059.45C1599.64 2079.44 1591.3 2096.79 1584.46 2110.31C1577.75 2123.56 1572.12 2133.85 1568.14 2139.17L1567.96 2139.4L1567.77 2139.63C1560 2148.69 1546.48 2158.92 1529.68 2169.79C1512.65 2180.79 1491.49 2192.92 1467.8 2205.67C1420.4 2231.17 1362.35 2259.44 1305.92 2286.58C1295.99 2291.36 1286.12 2296.1 1276.36 2300.78C1230.54 2322.77 1187.28 2343.53 1153.22 2360.99C1132.55 2371.58 1115.48 2380.85 1103.38 2388.35C1097.31 2392.12 1092.72 2395.3 1089.61 2397.86C1088.05 2399.15 1087.04 2400.13 1086.44 2400.83C1086.31 2400.98 1086.21 2401.1 1086.15 2401.19L1085.85 2402.21L1084.91 2403.51C1077.31 2413.96 1073.23 2429.53 1072.68 2448.42C1072.14 2467.15 1075.11 2488.19 1080.63 2508.62C1086.15 2529.04 1094.12 2548.49 1103.33 2564.06C1112.09 2578.87 1121.4 2589.22 1129.98 2594.21H1835.1C1843.29 2490.93 1865.37 2264.38 1893.8 2086.66C1921.96 1910.68 2014 1665.15 2061.77 1551.32C2035.72 1554.18 1999.25 1561.19 1961.08 1574.42Z" clip-rule="evenodd" class="color032068 svgShape"></path>
  <path fill="#606060" d="M2454.51 2252.24 2386.12 1974.11 2404.36 2247.68 2065.67 2333.37C2040.19 2339.82 2016.88 2355.67 2009.48 2380.89 1986.57 2458.9 2021.33 2549.24 2048.71 2580.53 2020.79 2548.61 2021.36 2393.59 2053.27 2370.79 2078.81 2352.55 2395.24 2293.28 2550.26 2265.92L2454.51 2252.24ZM1775.14 1901.16 1606.44 2603.33H1533.49L1775.14 1901.16Z" class="color032068 svgShape"></path>
  <path fill="#ffffff" d="M1729.55 2603.33C1729.55 2479.31 1913.45 2442.22 2003.12 2439.18C2003.12 2501.19 2035.03 2562.29 2062.39 2603.33H1729.55Z" class="colorffffff svgShape"></path>
  <path fill="#606060" fill-rule="evenodd" d="M2012.24 2429.75L2002.81 2430.07C1957.23 2431.61 1887.6 2441.78 1829.03 2467.54C1770.73 2493.19 1720.43 2535.8 1720.43 2603.33V2612.45H2079.43L2069.98 2598.27C2042.89 2557.63 2012.24 2498.41 2012.24 2439.18V2429.75ZM1994.23 2448.71C1996.9 2503.12 2021.78 2555.56 2045.69 2594.21H1739.04C1743.27 2542.72 1783.38 2507.55 1836.38 2484.23C1888.43 2461.34 1950.36 2451.19 1994.23 2448.71Z" clip-rule="evenodd" class="color032068 svgShape"></path>
  <path fill="#ffffff" d="M844.995 2603.33C844.995 2493.09 989.797 2455.56 1068.41 2452.86C1068.41 2507.98 1104.47 2577.66 1123.13 2603.33H844.995Z" class="colorffffff svgShape"></path>
  <path fill="#606060" fill-rule="evenodd" d="M1077.53 2443.42L1068.1 2443.75C1027.84 2445.13 970.593 2455.39 923.077 2479.65C875.531 2503.92 835.877 2543.35 835.877 2603.33V2612.45H1141.03L1130.5 2597.97C1121.67 2585.81 1108.33 2562.63 1097.21 2535.66C1086.05 2508.61 1077.53 2478.69 1077.53 2452.86V2443.42ZM1059.62 2462.43C1061.37 2489.1 1070.05 2517.65 1080.34 2542.61C1088.53 2562.48 1097.95 2580.55 1106.23 2594.21H854.484C858.199 2548.86 889.606 2517.21 931.37 2495.89C972.488 2474.9 1022.06 2464.88 1059.62 2462.43Z" clip-rule="evenodd" class="color032068 svgShape"></path>
  <path fill="#606060" d="M2285.81 1331.22 2335.96 1545.51C2434.45 1545.51 2542.66 1600.23 2582.18 1627.59 2604.97 1486.24 2518.34 1426.97 2468.19 1317.54 2418.03 1208.11 2459.07 952.776 2203.74 952.776 1999.47 952.776 1969.68 1135.16 1980.32 1226.35 2071.51 1200.81 2124.7 1106.28 2139.9 1062.2 2149.02 1085 2226.53 1290.18 2253.89 1240.03 2281.25 1189.87 2322.28 1176.19 2345.08 1240.03 2363.32 1291.09 2313.16 1322.1 2285.81 1331.22ZM1916.49 1586.55C1978.49 1524.54 2003.12 1381.37 2007.68 1317.54 2022.27 1423.32 2080.63 1464.96 2107.99 1472.56L2094.31 1545.51C2014.06 1541.87 1942.32 1571.35 1916.49 1586.55ZM2696.17 2603.33C2718.05 2457.42 2828.39 2364.71 2883.11 2338.87 2912.67 2458.09 2905.9 2603.33 2778.24 2603.33H2696.17Z" class="color032068 svgShape"></path>
  <path fill="#ffffff" d="M524.263 851.956C524.263 831.206 541.172 814.385 562.03 814.385H1273.87C1294.72 814.385 1311.63 831.206 1311.63 851.956V1235.98C1311.63 1256.73 1294.72 1273.55 1273.87 1273.55H562.03C541.172 1273.55 524.263 1256.73 524.263 1235.98V851.956Z" class="colorffffff svgShape"></path>
  <path fill="#606060" fill-rule="evenodd" d="M516.709 851.956C516.709 827.056 537 806.871 562.03 806.871H1273.87C1298.9 806.871 1319.19 827.056 1319.19 851.956V1235.98C1319.19 1260.88 1298.9 1281.06 1273.87 1281.06H562.03C537 1281.06 516.709 1260.88 516.709 1235.98V851.956ZM562.03 821.899C545.343 821.899 531.816 835.356 531.816 851.956V1235.98C531.816 1252.58 545.343 1266.03 562.03 1266.03H1273.87C1290.55 1266.03 1304.08 1252.58 1304.08 1235.98V851.956C1304.08 835.356 1290.55 821.899 1273.87 821.899H562.03Z" clip-rule="evenodd" class="color032068 svgShape"></path>
  <path fill="#606060" d="M1073.92 1025.74L882.648 1187.12V1233.28C882.648 1254.03 899.557 1270.85 920.416 1270.85H1273.86C1294.72 1270.85 1311.63 1254.03 1311.63 1233.28V1169.52L1121.31 1024.56C1107.2 1013.82 1087.47 1014.31 1073.92 1025.74Z" class="color032068 svgShape"></path>
  <path fill="#fc5c56" d="M974.132 957.12C974.132 985.232 951.223 1008.02 922.964 1008.02C894.704 1008.02 871.795 985.232 871.795 957.12C871.795 929.007 894.704 906.217 922.964 906.217C951.223 906.217 974.132 929.007 974.132 957.12Z" class="colore7e8ff svgShape"></path>
  <path fill="#ffffff" d="M718.161 1025.57L524.263 1187.12L524.263 1235.98C524.263 1256.73 541.172 1273.55 562.03 1273.55H1089L765.517 1024.66C751.476 1013.85 731.769 1014.23 718.161 1025.57Z" class="colorffffff svgShape"></path>
  <path fill="#606060" fill-rule="evenodd" d="M760.895 1030.6C749.663 1021.96 733.897 1022.26 723.011 1031.33L531.816 1190.63L531.816 1235.98C531.816 1252.58 545.343 1266.03 562.03 1266.03H1066.88L760.895 1030.6ZM713.311 1019.81C729.64 1006.21 753.289 1005.75 770.138 1018.71L1111.11 1281.06H562.03C537 1281.06 516.709 1260.88 516.709 1235.98L516.709 1183.61L713.311 1019.81Z" clip-rule="evenodd" class="color032068 svgShape"></path>
  <path fill="#ffffff" d="M1304.35 1936.49L1558.91 2514.55C1571.69 2543.57 1550.43 2576.15 1518.73 2576.15H741.953C724.113 2576.15 708.047 2565.36 701.304 2548.84L465.305 1970.78C453.514 1941.9 474.759 1910.28 505.954 1910.28H1264.16C1281.57 1910.28 1297.33 1920.56 1304.35 1936.49Z" class="colorffffff svgShape"></path>
  <path fill="#606060" fill-rule="evenodd" d="M1264.17 1919.4C1277.96 1919.4 1290.44 1927.54 1296 1940.16L1550.56 2518.23C1560.69 2541.22 1543.85 2567.03 1518.73 2567.03H741.953C727.819 2567.03 715.089 2558.48 709.747 2545.4L473.748 1967.33C464.406 1944.45 481.238 1919.4 505.954 1919.4H1264.17ZM1312.69 1932.81C1304.22 1913.58 1285.19 1901.16 1264.17 1901.16H505.954C468.28 1901.16 442.623 1939.35 456.863 1974.22L692.862 2552.29C701.005 2572.24 720.408 2585.27 741.953 2585.27H1518.73C1557.02 2585.27 1582.69 2545.92 1567.25 2510.88L1312.69 1932.81Z" clip-rule="evenodd" class="color032068 svgShape"></path>
  <path fill="#606060" d="M1067.09 2196.97C1052.81 2163.86 1020.21 2142.42 984.157 2142.42 919.231 2142.42 875.515 2208.88 901.226 2268.5L907.634 2283.35C921.911 2316.46 954.511 2337.9 990.565 2337.9 1055.49 2337.9 1099.21 2271.44 1073.5 2211.83L1067.09 2196.97ZM754.147 2631.13H2102.25C2124.18 2631.13 2141.96 2613.36 2141.96 2591.42 2141.96 2569.49 2124.18 2551.72 2102.25 2551.72H754.147C725.694 2551.72 706.475 2580.76 717.601 2606.95 723.83 2621.61 738.218 2631.13 754.147 2631.13Z" class="color032068 svgShape"></path>
  <path fill="#ffffff" d="M97.7925 1870.83C86.1955 2145.74 257.462 2446.72 354.675 2576.5C359.751 2583.28 367.713 2587.12 376.178 2587.12H448.453C464.85 2587.12 477.546 2572.54 475.388 2556.29C410.996 2071.33 232.527 1890.15 128.018 1849.44C113.182 1843.66 98.4635 1854.92 97.7925 1870.83Z" class="colorffffff svgShape"></path>
  <path fill="#606060" fill-rule="evenodd" d="M124.708 1857.94C116.647 1854.8 107.355 1860.5 106.903 1871.21C101.184 2006.79 140.578 2149.34 193.821 2274.52C247.032 2399.63 313.772 2506.68 361.974 2571.04C365.265 2575.43 370.48 2578 376.178 2578H448.453C459.302 2578 467.785 2568.31 466.348 2557.49C402.123 2073.8 224.591 1896.84 124.708 1857.94ZM88.6814 1870.44C89.5716 1849.34 109.717 1832.53 131.328 1840.94C240.462 1883.45 419.868 2068.87 484.428 2555.09C487.307 2576.77 470.397 2596.24 448.453 2596.24H376.178C364.946 2596.24 354.236 2591.13 347.377 2581.97C298.365 2516.54 230.865 2408.22 177.038 2281.66C123.244 2155.18 82.8035 2009.78 88.6814 1870.44Z" clip-rule="evenodd" class="color032068 svgShape"></path>
  <path fill="#606060" d="M644.982 1706.9C420.023 1907.97 374.976 2379.2 375.63 2564.23C375.682 2578.99 387.796 2590.45 402.559 2590.45H469.478C479.605 2590.45 489.015 2584.67 493.699 2575.69C718.855 2144.06 695.69 1876.03 687.53 1726.6C686.331 1704.64 661.376 1692.24 644.982 1706.9Z" class="color032068 svgShape"></path>
  <path fill="#ffffff" d="M822.606 2127.58C645.239 2212.34 505.473 2421.83 440.9 2549.09C431.928 2566.77 445.065 2587.12 464.891 2587.12H544.44C549.714 2587.12 554.925 2585.58 559.32 2582.67C752.571 2454.44 832.634 2263.88 855.596 2153.38C859.663 2133.81 840.641 2118.96 822.606 2127.58Z" class="colorffffff svgShape"></path>
  <path fill="#606060" fill-rule="evenodd" d="M846.668 2151.52C849.191 2139.38 837.802 2130.42 826.538 2135.8C739.52 2177.39 661.234 2249.85 596.485 2328.2C531.798 2406.48 481.067 2490.08 449.032 2553.21C443.304 2564.5 451.5 2578 464.891 2578H544.44C547.957 2578 551.409 2576.97 554.278 2575.07L559.32 2582.67L554.278 2575.07C745.021 2448.5 824.055 2260.35 846.668 2151.52ZM818.674 2119.35C843.481 2107.49 870.134 2128.24 864.524 2155.24C841.214 2267.42 760.121 2460.37 564.362 2590.26C558.443 2594.19 551.471 2596.24 544.44 2596.24H464.891C438.631 2596.24 420.553 2569.03 432.768 2544.96C465.306 2480.84 516.745 2396.06 582.426 2316.59C648.045 2237.18 728.326 2162.52 818.674 2119.35Z" clip-rule="evenodd" class="color032068 svgShape"></path>
  <path fill="#606060" fill-rule="evenodd" d="M193.654 1955.83C230.962 2006.46 266.107 2075.79 297.622 2150.8C318.967 2201.61 338.725 2255.22 356.422 2307.72L374.03 2251.48L391.435 2256.93L366.245 2337.38C382.423 2387.1 396.641 2435.17 408.482 2478.17C419.42 2517.89 428.337 2553.31 434.897 2581.74L417.126 2585.84C410.857 2558.68 402.395 2524.98 392.036 2487.15L329.068 2458.95L336.523 2442.3L385.692 2464.33C374.8 2425.7 362.143 2383.58 348.003 2340.27C328.713 2281.17 306.679 2219.89 282.625 2162.21L197.645 2143.26L201.614 2125.46L273.862 2141.57C244.436 2073.51 212.374 2011.98 178.972 1966.65L193.654 1955.83Z" clip-rule="evenodd" class="color032068 svgShape"></path>
  <path fill="#ffffff" fill-rule="evenodd" d="M574.126 2018.14C587.313 1970.85 599.866 1928.06 611.155 1892.73C624.263 1851.71 635.463 1821.42 643.802 1805.72L627.695 1797.16C618.483 1814.5 606.847 1846.29 593.782 1887.18C580.642 1928.3 565.85 1979.3 550.385 2035.53C539.595 2074.76 528.469 2116.57 517.339 2159.38L490.998 2097.49L474.217 2104.64L509.846 2188.35C496.396 2240.6 483.046 2293.82 470.381 2345.24C448.455 2434.26 428.581 2517.89 413.799 2581.74L431.567 2585.85C446.112 2523.03 465.599 2441.01 487.12 2353.55L576.799 2305.53L568.19 2289.45L493.003 2329.71C504.418 2283.59 516.315 2236.34 528.28 2189.9C541.29 2139.4 554.379 2089.88 567.014 2043.85L640.5 1998.99L630.997 1983.42L574.126 2018.14Z" clip-rule="evenodd" class="colorffffff svgShape"></path>
  <path fill="#606060" fill-rule="evenodd" d="M717.096 2277.9C739.261 2254.86 760.925 2234.42 781.29 2218.03L769.854 2203.82C743.048 2225.4 714.439 2253.43 685.716 2284.65C667.107 2304.88 648.396 2326.52 630.037 2348.69L634.767 2318.89L616.754 2316.03L607.094 2376.9C582.913 2407.14 559.685 2437.74 538.504 2466.66C505.433 2511.82 477.315 2552.92 458.315 2582.15L473.607 2592.09C491.888 2563.97 518.791 2524.6 550.49 2481.17H615.722V2462.93H563.911C582.442 2437.96 602.311 2412.03 622.837 2386.42C647.031 2356.23 672.111 2326.52 696.969 2299.37L760.281 2289.86L757.572 2271.82L717.096 2277.9Z" clip-rule="evenodd" class="color032068 svgShape"></path>
  <path fill="#fc5c56" d="M487.456 459.515 498.542 521.174C499.217 524.926 497.75 528.658 494.74 530.849L456.455 558.716C448.218 564.711 453.685 578.033 463.99 577.077L512.769 572.554C516.33 572.224 519.876 573.801 522.096 576.702L555.271 620.065C561.508 628.217 574.248 623.712 573.392 613.658L568.653 558.013C568.375 554.746 569.691 551.608 572.187 549.586L606.264 521.974C613.94 515.754 608.424 503.06 598.413 503.908L554.949 507.592C551.459 507.888 547.992 506.357 545.783 503.543L505.37 452.059C498.76 443.639 485.587 449.121 487.456 459.515ZM282.015 1356.18 268.728 1385.41C267.919 1387.19 266.214 1388.34 264.306 1388.38L240.042 1388.98C234.822 1389.11 233.247 1396.32 237.871 1398.92L259.76 1411.22C261.358 1412.12 262.394 1413.82 262.485 1415.69L263.844 1443.64C264.099 1448.9 270.784 1450.71 273.352 1446.22L287.564 1421.37C288.398 1419.91 289.867 1418.97 291.509 1418.85L313.924 1417.13C318.973 1416.74 320.345 1409.78 315.876 1407.22L296.473 1396.12C294.915 1395.22 293.899 1393.57 293.787 1391.74L291.742 1358.25C291.407 1352.78 284.254 1351.25 282.015 1356.18Z" class="colore7e8ff svgShape"></path>
</svg>
